<svg width="29" height="29" viewBox="0 0 29 29" fill="none" xmlns="http://www.w3.org/2000/svg">
<g clip-path="url(#clip0_1_1842)">
<path d="M6.06342 14.4999C6.06342 13.5792 6.2205 12.6959 6.49842 11.8682L1.61917 8.21899C0.638847 10.1674 0.129765 12.3188 0.132919 14.4999C0.132919 16.7571 0.667002 18.8862 1.61675 20.776L6.49359 17.1208C6.20922 16.2762 6.06394 15.3911 6.06342 14.4999Z" fill="#FBBC05"/>
<path d="M14.6329 6.12251C16.675 6.12251 18.5201 6.83059 19.9701 7.99059L24.1884 3.86655C21.6183 1.67584 18.3232 0.32251 14.6329 0.32251C8.90301 0.32251 3.97784 3.53063 1.61917 8.21897L6.50084 11.8681C7.62459 8.52588 10.8291 6.12251 14.6329 6.12251Z" fill="#EA4335"/>
<path d="M14.6329 22.8775C10.8279 22.8775 7.62338 20.4741 6.49842 17.1318L1.61917 20.781C3.97663 25.4693 8.9018 28.6775 14.6329 28.6775C18.1685 28.6775 21.5446 27.4486 24.0797 25.1443L19.4469 21.6377C18.1407 22.4437 16.495 22.8775 14.6317 22.8775" fill="#34A853"/>
<path d="M28.4732 14.5C28.4732 13.6626 28.3403 12.76 28.1433 11.9226H14.6317V17.4H22.4085C22.0207 19.2681 20.9622 20.7036 19.4481 21.6376L24.0797 25.1442C26.7416 22.7251 28.4732 19.1219 28.4732 14.5Z" fill="#4285F4"/>
</g>
<defs>
<clipPath id="clip0_1_1842">
<rect width="29" height="29" fill="white"/>
</clipPath>
</defs>
</svg>
