<svg width="28" height="29" viewBox="0 0 28 29" fill="none" xmlns="http://www.w3.org/2000/svg">
<path d="M19.8333 4.81314C19.8333 4.7384 19.8182 4.6644 19.7889 4.59535C19.7596 4.52631 19.7166 4.46357 19.6625 4.41072C19.6083 4.35788 19.544 4.31596 19.4732 4.28736C19.4025 4.25876 19.3266 4.24403 19.25 4.24403H16.3333C14.8646 4.17266 13.4267 4.67131 12.3337 5.63104C11.2407 6.59076 10.5814 7.93354 10.5 9.36599V12.4392H7.58333C7.42862 12.4392 7.28025 12.4991 7.17085 12.6058C7.06146 12.7126 7 12.8573 7 13.0083V15.9676C7 16.1185 7.06146 16.2633 7.17085 16.37C7.28025 16.4768 7.42862 16.5367 7.58333 16.5367H10.5V24.1627C10.5 24.3137 10.5615 24.4584 10.6709 24.5651C10.7803 24.6719 10.9286 24.7318 11.0833 24.7318H14.5833C14.6599 24.7318 14.7358 24.7171 14.8066 24.6885C14.8773 24.6599 14.9416 24.618 14.9958 24.5651C15.05 24.5123 15.0929 24.4496 15.1223 24.3805C15.1516 24.3115 15.1667 24.2375 15.1667 24.1627V16.5367H18.2233C18.3531 16.5385 18.4797 16.4981 18.5832 16.4218C18.6868 16.3456 18.7613 16.2378 18.795 16.1156L19.635 13.1562C19.6582 13.0721 19.6613 12.984 19.6441 12.8985C19.6269 12.8131 19.5898 12.7326 19.5357 12.6634C19.4816 12.5941 19.412 12.5378 19.3321 12.499C19.2522 12.4601 19.1643 12.4396 19.075 12.4392H15.1667V9.36599C15.1957 9.08425 15.3313 8.82319 15.547 8.63377C15.7628 8.44435 16.0431 8.34018 16.3333 8.3416H19.25C19.4047 8.3416 19.5531 8.28164 19.6625 8.17491C19.7719 8.06818 19.8333 7.92343 19.8333 7.77249V4.81314Z" fill="#3B5998"/>
</svg>
