<svg width="714" height="722" viewBox="0 0 714 722" fill="none" xmlns="http://www.w3.org/2000/svg">
<path d="M607.867 376.101C747.539 455.246 748.285 583.549 609.489 662.678C470.693 741.807 245.048 741.742 105.377 662.678C-34.2951 583.614 -35.025 455.246 103.755 376.117C242.535 296.988 468.212 296.972 607.867 376.101Z" fill="#0A0A0A"/>
<path d="M472.899 18.7799L480.051 14.6281L479.629 162.425L472.493 166.593L472.899 18.7799Z" fill="#F0F0F0"/>
<path d="M472.493 166.593L479.629 162.425L685.829 281.467L678.676 285.619L472.493 166.593Z" fill="#F5F5F5"/>
<path d="M464.709 4.58899L687.337 133.119L686.866 299.826L464.238 171.28L464.709 4.58899ZM678.676 285.619L679.098 137.822L472.899 18.78L472.493 166.577L678.676 285.619Z" fill="#BCBCBC"/>
<path d="M464.709 4.58899L471.861 0.420898L694.489 128.967L687.337 133.119L464.709 4.58899Z" fill="#F5F5F5"/>
<path d="M687.337 133.119L694.489 128.967L694.019 295.675L686.866 299.826L687.337 133.119Z" fill="#F0F0F0"/>
<path d="M571.879 75.9331L571.457 223.73L579.68 228.482L580.101 80.6688L571.879 75.9331Z" fill="#BCBCBC"/>
<path d="M580.101 80.6689L579.68 228.482L586.832 224.33L587.237 84.7884L580.101 80.6689Z" fill="#F0F0F0"/>
<path opacity="0.2" d="M580.101 87.3183L580.118 80.6688L571.895 75.9331L571.863 82.5664L580.101 87.3183Z" fill="black"/>
<path opacity="0.2" d="M580.085 87.3184L585.859 83.9937L580.101 80.6689L580.085 87.3184Z" fill="black"/>
<path d="M126.898 469.275C122.309 471.935 122.276 476.232 126.898 478.876L143.327 488.429C145.897 489.736 148.74 490.417 151.623 490.417C154.506 490.417 157.349 489.736 159.919 488.429L357.992 373.36C362.582 370.716 362.631 366.402 357.992 363.742L341.547 354.19C338.977 352.882 336.135 352.201 333.252 352.201C330.368 352.201 327.526 352.882 324.956 354.19L126.898 469.275Z" fill="#958080"/>
<path d="M154.696 587.668L301.099 672.733C303.14 673.919 305.46 674.544 307.821 674.544C310.182 674.544 312.502 673.919 314.544 672.733L580.442 519.276C580.95 518.98 581.372 518.557 581.666 518.047C581.959 517.538 582.113 516.96 582.113 516.373C582.113 515.785 581.959 515.207 581.666 514.698C581.372 514.188 580.95 513.765 580.442 513.469L436.1 429.589C434.066 428.42 431.762 427.806 429.418 427.806C427.073 427.806 424.769 428.42 422.736 429.589L154.729 581.878C154.222 582.172 153.802 582.592 153.508 583.098C153.215 583.605 153.059 584.179 153.055 584.764C153.052 585.349 153.202 585.925 153.49 586.434C153.777 586.944 154.193 587.369 154.696 587.668Z" fill="#958080"/>
<path d="M92.0286 80.7337L92.1421 116.43L96.4562 118.944L96.3426 78.2523L92.0286 80.7337Z" fill="#F0F0F0"/>
<path d="M45.4333 143.401L45.4496 148.396L96.456 118.944L92.142 116.43L45.4333 143.401Z" fill="#F5F5F5"/>
<path d="M101.548 69.235L40.0811 104.721L40.227 157.43L101.71 121.944L101.548 69.235ZM45.4331 148.396V143.401L45.3196 107.721L92.0282 80.75L96.3422 78.2686L96.4558 118.96L45.4331 148.396Z" fill="#BCBCBC"/>
<path d="M101.549 69.235L97.2347 66.7212L35.7512 102.207L40.0815 104.721L101.549 69.235Z" fill="#F5F5F5"/>
<path d="M35.7512 102.207L35.8972 154.916L40.2275 157.43L40.0815 104.721L35.7512 102.207Z" fill="#F0F0F0"/>
<path d="M92.0286 155.127L92.1421 190.823L96.4562 193.337L96.3426 152.629L92.0286 155.127Z" fill="#F0F0F0"/>
<path d="M45.4333 217.794L45.4496 222.79L96.456 193.337L92.142 190.823L45.4333 217.794Z" fill="#F5F5F5"/>
<path d="M101.548 143.612L40.0811 179.114L40.227 231.823L101.71 196.321L101.548 143.612ZM45.4331 222.757V217.746L45.3196 182.065L92.0282 155.111L96.3422 152.613L96.4558 193.321L45.4331 222.757Z" fill="#BCBCBC"/>
<path d="M101.549 143.612L97.2347 141.098L35.7512 176.6L40.0815 179.114L101.549 143.612Z" fill="#F5F5F5"/>
<path d="M35.7512 176.6L35.8972 229.293L40.2275 231.823L40.0815 179.114L35.7512 176.6Z" fill="#F0F0F0"/>
<path d="M77.1889 94.2922L89.9364 104.315L89.9527 114.111L47.5905 138.568L47.5581 128.772L55.6348 112.749L62.8844 118.376L60.3219 126.34L64.0521 119.268L77.1889 94.2922Z" fill="#BCBCBC"/>
<path d="M63.2733 99.2226C65.2682 98.0711 66.89 98.9955 66.9062 101.299C66.8507 102.561 66.4951 103.791 65.869 104.888C65.2428 105.986 64.3641 106.918 63.3057 107.607C61.3109 108.759 59.6891 107.835 59.6729 105.548C59.7258 104.283 60.0802 103.049 60.7064 101.949C61.3327 100.849 62.2128 99.9139 63.2733 99.2226Z" fill="#BCBCBC"/>
<path d="M77.1889 168.685L89.9364 178.708L89.9527 188.504L47.5905 212.961L47.5581 203.165L55.6348 187.126L62.8844 192.753L60.3219 200.717L64.0521 193.645L77.1889 168.685Z" fill="#BCBCBC"/>
<path d="M63.2733 173.616C65.2682 172.464 66.89 173.389 66.9062 175.676C66.8406 176.926 66.4803 178.144 65.8546 179.229C65.2289 180.314 64.3555 181.236 63.3057 181.92C61.3109 183.071 59.6891 182.147 59.6729 179.844C59.7409 178.596 60.1025 177.381 60.7281 176.299C61.3537 175.217 62.2257 174.298 63.2733 173.616Z" fill="#BCBCBC"/>
<path d="M347.385 54.9142C347.385 41.2422 342.52 31.641 334.719 27.1161L317.219 16.7851L316.976 16.6553C316.276 16.2501 315.55 15.8925 314.803 15.5849C314.665 15.529 314.524 15.4803 314.381 15.4389L313.635 15.1795C313.262 15.0497 312.905 14.8875 312.516 14.774C312.127 14.6605 311.673 14.5794 311.267 14.4821L310.489 14.3199C310.356 14.278 310.221 14.2455 310.083 14.2226C309.214 14.0701 308.337 13.9672 307.456 13.9144H306.661C305.98 13.9144 305.299 13.9144 304.585 13.9144L303.872 13.9955L302.574 14.1253C302.169 14.1253 301.763 14.1253 301.358 14.2388L300.271 14.4821C299.687 14.5794 299.103 14.7091 298.503 14.8551C298.179 14.8551 297.871 14.9686 297.547 15.0659C296.817 15.2605 296.087 15.4876 295.341 15.7309H295.114C294.222 16.0228 293.346 16.3634 292.438 16.7364L291.367 17.223L290.346 17.6933C289.032 18.3096 287.718 18.9745 286.372 19.753L158.442 93.6272C157.048 94.4381 155.669 95.3139 154.307 96.2546L153.009 97.1952C152.085 97.8602 151.177 98.5414 150.268 99.255L148.793 100.488C147.965 101.185 147.171 101.899 146.344 102.628L144.884 103.991L143.96 104.85C143.651 105.158 143.343 105.515 143.035 105.84C142.062 106.829 141.089 107.851 140.148 108.905C139.856 109.245 139.532 109.554 139.224 109.894L138.494 110.786C137.926 111.451 137.375 112.148 136.872 112.83C136.369 113.511 136.126 113.722 135.769 114.176C135.412 114.63 135.202 114.954 134.926 115.343C134.65 115.733 134.115 116.414 133.726 116.965L132.882 118.084C132.428 118.733 132.007 119.398 131.569 120.063L130.725 121.312L130.385 121.831C129.606 123.047 128.86 124.264 128.13 125.512L128.001 125.756L127.579 126.502C127.076 127.377 126.574 128.269 126.103 129.161C125.876 129.567 125.682 129.989 125.471 130.41L124.806 131.708C124.627 132.097 124.416 132.47 124.238 132.843C123.735 133.865 123.281 134.886 122.827 135.924L122.584 136.46L122.503 136.606C121.951 137.903 121.416 139.201 120.881 140.498C120.8 140.741 120.719 140.985 120.621 141.228C120.524 141.471 120.297 142.168 120.119 142.639C119.94 143.109 119.632 143.936 119.421 144.601C119.21 145.266 119.113 145.607 118.951 146.126C118.789 146.645 118.578 147.31 118.416 147.894C118.254 148.477 118.172 148.64 118.075 149.013C117.881 149.678 117.751 150.343 117.589 151.007C117.426 151.672 117.199 152.483 117.037 153.213C117.037 153.473 116.907 153.732 116.843 153.992C116.729 154.527 116.68 155.046 116.583 155.613C116.356 156.765 116.145 157.916 115.983 159.068C115.983 159.392 115.853 159.717 115.821 160.025C115.723 160.755 115.675 161.468 115.61 162.198C115.545 162.928 115.496 163.22 115.464 163.723C115.334 165.344 115.253 166.966 115.269 168.507L115.821 415.365C115.821 429.037 120.686 438.655 128.487 443.18L146.003 453.543C145.511 453.237 145.035 452.907 144.576 452.554C152.555 458.117 164.038 457.922 176.834 450.526L304.731 376.636C328.669 362.818 348.034 329.295 347.953 301.756L347.385 54.9142Z" fill="#EA454C"/>
<path opacity="0.6" d="M347.385 54.9142C347.385 41.2422 342.52 31.641 334.719 27.1161L317.219 16.7851L316.976 16.6553C316.276 16.2501 315.55 15.8925 314.803 15.5849C314.665 15.529 314.524 15.4803 314.381 15.4389L313.635 15.1795C313.262 15.0497 312.905 14.8875 312.516 14.774C312.127 14.6605 311.673 14.5794 311.267 14.4821L310.489 14.3199C310.356 14.278 310.221 14.2455 310.083 14.2226C309.214 14.0701 308.337 13.9672 307.456 13.9144H306.661C305.98 13.9144 305.299 13.9144 304.585 13.9144L303.872 13.9955L302.574 14.1253C302.169 14.1253 301.763 14.1253 301.358 14.2388L300.271 14.4821C299.687 14.5794 299.103 14.7091 298.503 14.8551C298.179 14.8551 297.871 14.9686 297.547 15.0659C296.817 15.2605 296.087 15.4876 295.341 15.7309H295.114C294.222 16.0228 293.346 16.3634 292.438 16.7364L291.367 17.223L290.346 17.6933C289.032 18.3096 287.718 18.9745 286.372 19.753L158.442 93.6272C157.048 94.4381 155.669 95.3139 154.307 96.2546L153.009 97.1952C152.085 97.8602 151.177 98.5414 150.268 99.255L148.793 100.488C147.965 101.185 147.171 101.899 146.344 102.628L144.884 103.991L143.96 104.85C143.651 105.158 143.343 105.515 143.035 105.84C142.062 106.829 141.089 107.851 140.148 108.905C139.856 109.245 139.532 109.554 139.224 109.894L138.494 110.786C137.926 111.451 137.375 112.148 136.872 112.83C136.369 113.511 136.126 113.722 135.769 114.176C135.412 114.63 135.202 114.954 134.926 115.343C134.65 115.733 134.115 116.414 133.726 116.965L132.882 118.084C132.428 118.733 132.007 119.398 131.569 120.063L130.725 121.312L130.385 121.831C129.606 123.047 128.86 124.264 128.13 125.512L128.001 125.756L127.579 126.502C127.076 127.377 126.574 128.269 126.103 129.161C125.876 129.567 125.682 129.989 125.471 130.41L124.806 131.708C124.627 132.097 124.416 132.47 124.238 132.843C123.735 133.865 123.281 134.886 122.827 135.924L122.584 136.46L122.503 136.606C121.951 137.903 121.416 139.201 120.881 140.498C120.8 140.741 120.719 140.985 120.621 141.228C120.524 141.471 120.297 142.168 120.119 142.639C119.94 143.109 119.632 143.936 119.421 144.601C119.21 145.266 119.113 145.607 118.951 146.126C118.789 146.645 118.578 147.31 118.416 147.894C118.254 148.477 118.172 148.64 118.075 149.013C117.881 149.678 117.751 150.343 117.589 151.007C117.426 151.672 117.199 152.483 117.037 153.213C117.037 153.473 116.907 153.732 116.843 153.992C116.729 154.527 116.68 155.046 116.583 155.613C116.356 156.765 116.145 157.916 115.983 159.068C115.983 159.392 115.853 159.717 115.821 160.025C115.723 160.755 115.675 161.468 115.61 162.198C115.545 162.928 115.496 163.22 115.464 163.723C115.334 165.344 115.253 166.966 115.269 168.507L115.821 415.365C115.821 429.037 120.686 438.655 128.487 443.18L146.003 453.543C145.511 453.237 145.035 452.907 144.576 452.554C152.555 458.117 164.038 457.922 176.834 450.526L304.731 376.636C328.669 362.818 348.034 329.295 347.953 301.756L347.385 54.9142Z" fill="black"/>
<path opacity="0.1" d="M133.304 425.68L132.817 178.838L115.302 168.474L115.853 415.333C115.853 429.005 120.719 438.622 128.52 443.147L146.035 453.511C138.186 448.986 133.353 439.368 133.304 425.68Z" fill="black"/>
<path opacity="0.3" d="M308.883 27.6026C310.105 27.0412 311.356 26.5432 312.629 26.1106H312.857C313.927 25.7538 314.981 25.4781 316.1 25.2348L317.868 24.8455C318.646 24.6996 319.409 24.586 320.171 24.505L321.468 24.359C322.398 24.3108 323.329 24.3108 324.258 24.359H324.891C325.979 24.424 327.063 24.5595 328.134 24.7644L328.913 24.9429C329.714 25.1312 330.505 25.364 331.281 25.6402L332.027 25.8835C333.006 26.265 333.955 26.7204 334.865 27.2458L317.219 16.7851L316.976 16.6553C316.276 16.2501 315.55 15.8925 314.803 15.5849C314.665 15.529 314.524 15.4803 314.381 15.4389L313.635 15.1795C313.262 15.0497 312.905 14.8875 312.516 14.774C312.127 14.6605 311.673 14.5794 311.267 14.4821L310.489 14.3199C310.356 14.278 310.221 14.2455 310.083 14.2226C309.214 14.0701 308.337 13.9672 307.456 13.9144H306.661C305.98 13.9144 305.299 13.9144 304.585 13.9144L303.872 13.9955L302.574 14.1253C302.169 14.1253 301.763 14.1253 301.358 14.2388L300.271 14.4821C299.687 14.5794 299.103 14.7091 298.503 14.8551C298.179 14.8551 297.871 14.9686 297.547 15.0659C296.817 15.2605 296.087 15.4876 295.341 15.7309H295.114C294.222 16.0228 293.346 16.3634 292.438 16.7364L291.367 17.223L290.346 17.6933C289.032 18.3096 287.718 18.9745 286.372 19.753L158.442 93.6272C157.048 94.4381 155.669 95.3139 154.307 96.2546L153.009 97.2115C152.085 97.8602 151.177 98.5414 150.268 99.255L148.793 100.488C147.965 101.185 147.171 101.899 146.344 102.628L144.884 103.991L143.96 104.85C143.651 105.158 143.343 105.515 143.035 105.84C142.062 106.829 141.089 107.851 140.148 108.905C139.856 109.245 139.532 109.554 139.224 109.894L138.494 110.786C137.926 111.451 137.375 112.148 136.872 112.83C136.369 113.511 136.126 113.722 135.769 114.176C135.412 114.63 135.202 114.954 134.926 115.343C134.65 115.733 134.115 116.414 133.726 116.965L132.882 118.084C132.428 118.733 132.007 119.398 131.569 120.063L130.725 121.312L130.385 121.831C129.606 123.047 128.86 124.264 128.13 125.512L128.001 125.756L127.579 126.502C127.076 127.394 126.574 128.269 126.103 129.161C125.876 129.567 125.682 129.989 125.471 130.41L124.806 131.708C124.627 132.097 124.416 132.47 124.238 132.843C123.735 133.865 123.281 134.886 122.827 135.924L122.584 136.46L122.503 136.606C121.951 137.903 121.416 139.201 120.881 140.498C120.8 140.741 120.719 140.985 120.621 141.228C120.524 141.471 120.297 142.169 120.119 142.639C119.94 143.109 119.632 143.936 119.421 144.601C119.21 145.266 119.113 145.607 118.951 146.126C118.789 146.645 118.578 147.31 118.416 147.894C118.254 148.477 118.172 148.64 118.075 149.013C117.881 149.678 117.751 150.343 117.589 151.007C117.426 151.672 117.199 152.483 117.037 153.213C117.037 153.473 116.907 153.732 116.843 153.992C116.729 154.527 116.68 155.046 116.583 155.613C116.356 156.765 116.145 157.916 115.983 159.068C115.983 159.392 115.853 159.717 115.821 160.025C115.723 160.755 115.675 161.468 115.61 162.198C115.545 162.928 115.496 163.22 115.464 163.723C115.334 165.344 115.253 166.966 115.269 168.507L132.785 178.87C132.785 177.249 132.785 175.627 132.964 174.086C132.964 173.567 133.077 173.064 133.126 172.545C133.223 171.507 133.353 170.469 133.499 169.431C133.645 168.393 133.872 167.128 134.099 165.977C134.245 165.182 134.375 164.355 134.553 163.609C134.731 162.863 134.91 162.133 135.104 161.387C135.364 160.365 135.623 159.327 135.915 158.289C136.094 157.706 136.288 157.106 136.467 156.505C136.84 155.354 137.229 154.186 137.634 153.035C137.797 152.564 137.959 152.078 138.137 151.608C138.737 149.986 139.37 148.364 140.067 146.856L140.31 146.304C140.943 144.893 141.592 143.498 142.289 142.104C142.5 141.666 142.727 141.228 142.954 140.806C143.619 139.493 144.333 138.195 145.062 136.898L145.484 136.152C146.36 134.643 147.268 133.167 148.209 131.708L149.052 130.443C149.749 129.405 150.463 128.383 151.193 127.361L152.409 125.739C153.042 124.896 153.707 124.118 154.355 123.242L155.977 121.182L157.599 119.317C158.54 118.263 159.513 117.241 160.486 116.252C161.102 115.619 161.702 115.003 162.335 114.403C162.967 113.803 163.308 113.478 163.794 113.04C164.605 112.294 165.416 111.581 166.243 110.9L167.719 109.667C168.627 108.953 169.536 108.272 170.46 107.607C170.898 107.299 171.32 106.959 171.758 106.667C173.12 105.726 174.499 104.85 175.893 104.039L303.823 30.1814C305.169 29.4029 306.483 28.7379 307.796 28.1216L308.883 27.6026Z" fill="black"/>
<path d="M155.118 425.615C155.118 430.983 156.302 433.724 156.902 434.568C157.085 434.583 157.27 434.583 157.453 434.568C158.443 434.568 161.232 434.276 165.903 431.584L293.833 357.726C311.105 347.751 326.269 321.624 326.139 301.789L326.01 238.375L154.907 338.231L155.118 425.615Z" fill="#EA454C"/>
<path d="M325.588 54.9791C325.588 49.546 324.355 46.87 323.772 46.0266H323.042H322.539L321.825 46.1401L321.144 46.2861C320.723 46.3834 320.122 46.5456 319.685 46.6916H319.474C319.036 46.8537 318.452 47.0808 317.852 47.389L317.252 47.6647C316.279 48.1188 315.516 48.508 314.852 48.8973L186.922 122.755C186.127 123.226 185.3 123.777 184.311 124.377L183.338 125.074C182.705 125.545 182.073 126.015 181.456 126.502L180.58 127.215L180.402 127.377C179.786 127.88 179.202 128.399 178.618 128.918L177.531 129.94L176.364 131.124L176.153 131.335C175.407 132.081 174.677 132.859 173.98 133.654L173.736 133.913L172.698 135.081L171.385 136.703C170.866 137.352 170.347 138 169.86 138.665L168.903 139.93C168.336 140.741 167.768 141.552 167.281 142.379L166.6 143.385C165.822 144.601 165.092 145.785 164.46 146.872L164.103 147.504C163.519 148.526 162.967 149.564 162.481 150.602L161.962 151.624C161.41 152.727 160.891 153.829 160.34 154.867C160.243 155.078 160.162 155.289 160.048 155.516C159.594 156.587 159.124 157.754 158.621 159.068L158.232 160.171C157.907 161.063 157.615 161.955 157.34 162.847C157.194 163.301 157.048 163.755 156.918 164.193C156.691 164.971 156.496 165.734 156.302 166.545L156.188 166.982L155.896 168.15L155.702 169.156L155.572 169.869C155.41 170.696 155.264 171.491 155.15 172.335C155.037 173.178 154.956 173.762 154.891 174.475L154.777 175.513C154.68 176.73 154.647 177.735 154.647 178.627L154.988 330.836L326.091 230.98L325.588 54.9791Z" fill="#455A64"/>
<path d="M154.89 330.998L154.907 338.264L326.009 238.408L325.977 231.142L154.89 330.998Z" fill="black"/>
<path d="M298.325 140.79L282.026 150.213C287.897 137.238 287.086 124.263 279.593 120.047C275.409 117.663 269.862 118.425 264.477 121.669C258.172 125.588 252.979 131.061 249.394 137.562L244.934 145.282L244.172 135.422C244.172 134.595 243.491 134.27 242.664 134.692C242.273 134.948 241.938 135.281 241.682 135.672C241.425 136.063 241.251 136.502 241.172 136.962L239.777 146.061L237.214 144.601C233.03 142.217 227.484 142.979 222.083 146.142C215.779 150.059 210.591 155.532 207.016 162.036C199.556 175.01 198.826 188.731 204.762 194.91L188.43 204.333C187.986 204.614 187.617 204.998 187.354 205.453C187.091 205.908 186.943 206.419 186.922 206.944C186.922 207.901 187.603 208.29 188.43 207.82L207.422 196.808L213.276 200.149L243.588 217.405L247.043 211.42L247.189 213.286C247.189 214.129 247.902 214.453 248.697 214.015C249.107 213.745 249.454 213.389 249.715 212.972C249.975 212.555 250.142 212.086 250.205 211.599L250.805 204.901L273.689 165.263L279.512 155.192L298.422 144.277C298.848 143.982 299.2 143.593 299.45 143.14C299.7 142.687 299.843 142.183 299.866 141.666C299.866 140.693 299.168 140.303 298.325 140.79Z" fill="#EA454C"/>
<path d="M242.648 134.611C243.475 134.189 244.091 134.513 244.156 135.341L244.918 145.201L248.794 194.44L253.481 143.142C253.53 142.666 253.683 142.207 253.93 141.798C254.177 141.389 254.511 141.039 254.909 140.774C255.687 140.32 256.32 140.53 256.449 141.293L261.996 171.264L263.034 162.652C263.101 162.179 263.269 161.725 263.527 161.322C263.784 160.92 264.125 160.577 264.526 160.317L282.026 150.213L298.341 140.79C299.185 140.303 299.866 140.693 299.866 141.666C299.835 142.188 299.683 142.697 299.421 143.15C299.159 143.604 298.795 143.989 298.357 144.277L279.447 155.192L265.807 163.041L263.65 180.882C263.586 181.35 263.422 181.799 263.171 182.199C262.919 182.598 262.585 182.94 262.191 183.201C261.428 183.639 260.812 183.412 260.666 182.666L255.363 153.878L250.724 204.917L250.124 211.615C250.061 212.103 249.894 212.571 249.634 212.988C249.373 213.405 249.026 213.761 248.616 214.032C247.821 214.47 247.173 214.145 247.108 213.302L246.962 211.437L242.096 149.288L233.987 201.982C233.906 202.437 233.733 202.872 233.479 203.259C233.226 203.647 232.896 203.979 232.511 204.236C231.668 204.674 231.068 204.349 231.003 203.522L227.759 166.22L224.078 185.893C223.987 186.335 223.81 186.754 223.557 187.127C223.303 187.5 222.979 187.819 222.602 188.066L207.422 196.808L188.495 207.739C187.668 208.209 186.987 207.739 186.987 206.863C187.008 206.338 187.156 205.827 187.419 205.372C187.682 204.917 188.051 204.533 188.495 204.252L204.827 194.829L221.467 185.212L226.981 155.808C227.067 155.363 227.242 154.939 227.496 154.563C227.749 154.187 228.076 153.866 228.457 153.619C229.3 153.197 229.884 153.538 229.965 154.332L233.111 190.012L239.842 145.947L241.237 136.849C241.311 136.401 241.474 135.972 241.716 135.587C241.958 135.203 242.275 134.871 242.648 134.611Z" fill="black"/>
<path d="M222.277 249.015L222.326 270.179L216.114 273.764L216.066 257.983L212.903 259.8V254.431L222.277 249.015Z" fill="black"/>
<path d="M231.408 243.257C235.771 240.743 238.853 241.635 238.869 245.593C238.869 247.668 238.415 249.809 235.723 254.156L233.111 258.437L239.307 254.869V260.4L224.548 268.931V264.552L231.198 253.621C232.027 252.536 232.528 251.235 232.641 249.874C232.641 248.869 232.025 248.577 230.841 249.258C229.558 250.082 228.6 251.326 228.132 252.777H223.445C224.895 248.764 227.715 245.393 231.408 243.257Z" fill="black"/>
<path d="M248.875 233.169C253.741 230.38 257.228 232.407 257.244 239.413C257.349 242.552 256.639 245.663 255.184 248.446C253.729 251.229 251.578 253.587 248.94 255.291C244.075 258.113 240.572 256.069 240.555 249.047C240.455 245.908 241.169 242.796 242.627 240.014C244.085 237.231 246.237 234.874 248.875 233.169ZM248.875 249.582C250.076 248.885 250.968 247.101 250.951 243.095C250.935 239.089 250.043 238.229 248.843 238.975C247.643 239.721 246.735 241.457 246.751 245.463C246.767 249.468 247.675 250.328 248.875 249.598" fill="black"/>
<path d="M265.272 238.602C266.781 237.727 268.078 238.294 268.078 240.419C268.066 241.429 267.805 242.421 267.319 243.306C266.832 244.191 266.135 244.943 265.289 245.495C264.575 245.901 264.056 245.998 263.667 245.755V246.29L261.396 247.603V238.57L263.78 237.191V240.029C264.134 239.423 264.651 238.929 265.272 238.602ZM264.705 243.695C265.009 243.491 265.255 243.213 265.42 242.886C265.585 242.559 265.663 242.195 265.645 241.83C265.645 240.97 265.224 240.776 264.705 241.084C264.403 241.28 264.158 241.554 263.996 241.876C263.833 242.197 263.759 242.556 263.78 242.916C263.78 243.776 264.186 243.987 264.705 243.695Z" fill="black"/>
<path d="M272.684 234.305C274.192 233.445 275.473 234.029 275.473 236.17C275.468 237.175 275.211 238.163 274.727 239.044C274.243 239.925 273.546 240.67 272.7 241.214C272.068 241.57 271.581 241.684 271.224 241.489V244.311L268.84 245.69V236.689L271.111 235.375V235.91C271.475 235.238 272.02 234.682 272.684 234.305ZM272.132 239.413C272.436 239.214 272.683 238.938 272.848 238.614C273.013 238.289 273.091 237.928 273.073 237.564C273.073 236.705 272.651 236.494 272.116 236.802C271.811 237.005 271.564 237.283 271.399 237.61C271.234 237.937 271.157 238.301 271.176 238.667C271.176 239.527 271.597 239.721 272.132 239.413Z" fill="black"/>
<path d="M283.891 227.833C285.205 227.087 286.194 227.428 286.194 229.455V233.25L283.81 234.629V231.385C283.81 230.542 283.55 230.38 283.177 230.591C282.919 230.769 282.713 231.014 282.582 231.299C282.451 231.585 282.399 231.9 282.431 232.212V235.456L280.047 236.835V233.591C280.047 232.748 279.788 232.585 279.382 232.812C279.124 232.991 278.918 233.236 278.787 233.521C278.656 233.807 278.604 234.122 278.636 234.434V237.678L276.236 239.057V232.407L278.506 231.11V231.71C278.9 231.04 279.458 230.481 280.128 230.088C280.89 229.65 281.539 229.601 281.945 230.088C282.363 229.165 283.039 228.382 283.891 227.833Z" fill="black"/>
<path d="M184.862 339.529C190.603 336.204 195.274 338.88 195.306 345.465C195.12 349.067 194.082 352.574 192.278 355.698C190.473 358.821 187.954 361.473 184.927 363.434C179.169 366.759 174.498 364.099 174.482 357.482C174.673 353.883 175.712 350.38 177.516 347.259C179.32 344.139 181.838 341.49 184.862 339.529Z" fill="black"/>
<path d="M310.148 276.845L310.164 281.337L206.595 341.134L206.578 336.658L310.148 276.845Z" fill="black"/>
<path d="M310.262 311.73V316.223L206.692 376.02L206.676 371.527L310.262 311.73Z" fill="black"/>
<path d="M262.24 347.865L262.256 352.341L206.708 384.405V379.928L262.24 347.865Z" fill="black"/>
<path d="M247.432 339.594V344.086L206.66 367.635V363.142L247.432 339.594Z" fill="black"/>
<path d="M298.877 291.766L298.893 296.242L206.611 349.519V345.043L298.877 291.766Z" fill="black"/>
<path d="M270.17 291.539L270.186 296.015L206.562 332.749V328.257L270.17 291.539Z" fill="black"/>
<path d="M184.96 374.349C190.701 371.024 195.388 373.684 195.404 380.285C195.214 383.887 194.174 387.392 192.37 390.515C190.566 393.638 188.049 396.29 185.024 398.255C179.283 401.58 174.596 398.904 174.58 392.303C174.77 388.703 175.81 385.2 177.614 382.08C179.418 378.959 181.935 376.31 184.96 374.349Z" fill="black"/>
<path d="M444.111 421.609L426.384 411.311L190.165 528.942L207.941 539.208L444.111 421.609Z" fill="#455A64"/>
<path d="M558.693 488.201L322.928 605.589L342.001 616.601L577.685 499.23L558.693 488.201Z" fill="#455A64"/>
<path opacity="0.3" d="M444.111 421.609L426.384 411.311L190.165 528.942L207.941 539.208L444.111 421.609Z" fill="white"/>
<path d="M322.928 605.589L207.941 539.208L190.165 528.942L157.113 524.595L308.429 612.531L342.001 616.601L322.928 605.589Z" fill="#455A64"/>
<path opacity="0.5" d="M322.928 605.589L207.941 539.208L190.165 528.942L157.113 524.595L308.429 612.531L342.001 616.601L322.928 605.589Z" fill="white"/>
<path opacity="0.3" d="M558.693 488.201L322.928 605.589L342.001 616.601L577.685 499.23L558.693 488.201Z" fill="white"/>
<path d="M308.429 612.531L157.113 524.595L157.145 564.492L157.177 582.073L308.478 670.008L308.429 612.531Z" fill="#455A64"/>
<path d="M171.741 568.968V555.702C171.739 555.131 171.887 554.57 172.171 554.076C172.455 553.581 172.864 553.169 173.358 552.883C173.851 552.597 174.411 552.446 174.982 552.445C175.552 552.445 176.113 552.595 176.607 552.88L289.681 618.596C290.913 619.308 291.937 620.332 292.649 621.564C293.361 622.797 293.735 624.195 293.735 625.619V638.885C293.738 639.456 293.589 640.017 293.306 640.512C293.022 641.007 292.613 641.418 292.119 641.704C291.626 641.99 291.065 642.141 290.495 642.142C289.924 642.142 289.364 641.993 288.87 641.707L175.845 575.991C174.603 575.285 173.57 574.264 172.849 573.031C172.128 571.798 171.746 570.397 171.741 568.968Z" fill="#37474F"/>
<path d="M308.429 612.531L308.478 670.008L577.75 514.54L577.685 499.23L342.001 616.602L308.429 612.531Z" fill="#455A64"/>
<path opacity="0.1" d="M308.429 612.531L308.478 670.008L577.75 514.54L577.685 499.23L342.001 616.602L308.429 612.531Z" fill="white"/>
<path d="M444.111 421.609L444.095 428.859H429.547L444.111 421.609Z" fill="#455A64"/>
<path d="M431.899 427.691L207.941 539.208L322.928 605.589L551.963 491.542L442.684 428.032C441.056 427.085 439.217 426.558 437.335 426.498C435.452 426.439 433.584 426.849 431.899 427.691Z" fill="#37474F"/>
<path d="M311.397 437.146C310.106 437.146 308.869 437.659 307.956 438.572C307.044 439.484 306.531 440.722 306.531 442.012V603.692C309.473 605.527 312.808 606.639 316.262 606.936V442.028C316.264 441.388 316.14 440.753 315.897 440.161C315.653 439.569 315.295 439.031 314.843 438.577C314.391 438.124 313.854 437.764 313.262 437.518C312.671 437.273 312.037 437.146 311.397 437.146Z" fill="#BCBCBC"/>
<path opacity="0.2" d="M311.397 437.146C310.106 437.146 308.869 437.659 307.956 438.572C307.044 439.484 306.531 440.722 306.531 442.012V603.692C309.473 605.527 312.808 606.639 316.262 606.936V442.028C316.264 441.388 316.14 440.753 315.897 440.161C315.653 439.569 315.295 439.031 314.843 438.577C314.391 438.124 313.854 437.764 313.262 437.518C312.671 437.273 312.037 437.146 311.397 437.146Z" fill="black"/>
<path opacity="0.3" d="M311.397 437.147C310.106 437.147 308.869 437.659 307.956 438.572C307.044 439.484 306.531 440.722 306.531 442.012V456.008C309.406 456.52 312.32 456.78 315.24 456.787H316.278V442.028C316.281 441.387 316.156 440.751 315.911 440.158C315.667 439.564 315.307 439.025 314.853 438.572C314.4 438.118 313.861 437.758 313.267 437.514C312.674 437.269 312.038 437.144 311.397 437.147Z" fill="black"/>
<path d="M183.321 367.992C182.031 367.992 180.793 368.504 179.881 369.417C178.968 370.329 178.456 371.567 178.456 372.857V531.342C181.435 533.032 184.766 534.009 188.187 534.197V372.873C188.189 372.233 188.064 371.599 187.821 371.006C187.577 370.414 187.219 369.876 186.767 369.423C186.315 368.969 185.778 368.609 185.187 368.364C184.595 368.118 183.961 367.992 183.321 367.992Z" fill="#BCBCBC"/>
<path opacity="0.2" d="M183.321 367.992C182.031 367.992 180.793 368.504 179.881 369.417C178.968 370.329 178.456 371.567 178.456 372.857V531.342C181.435 533.032 184.766 534.009 188.187 534.197V372.873C188.189 372.233 188.064 371.599 187.821 371.006C187.577 370.414 187.219 369.876 186.767 369.423C186.315 368.969 185.778 368.609 185.187 368.364C184.595 368.118 183.961 367.992 183.321 367.992Z" fill="black"/>
<path opacity="0.3" d="M183.321 367.992C182.031 367.992 180.793 368.504 179.881 369.417C178.968 370.329 178.456 371.567 178.456 372.857V385.556L188.187 391.2V372.873C188.189 372.233 188.064 371.599 187.821 371.006C187.577 370.414 187.219 369.876 186.767 369.423C186.315 368.969 185.778 368.609 185.187 368.364C184.595 368.118 183.961 367.992 183.321 367.992Z" fill="black"/>
<path d="M220.299 335.052C219.972 334.598 219.537 334.232 219.033 333.988C218.529 333.745 217.972 333.631 217.412 333.658L186.079 340.794C186.658 340.736 187.242 340.834 187.77 341.08C188.298 341.325 188.75 341.708 189.079 342.188C190.057 343.484 190.714 344.993 190.996 346.591C191.278 348.19 191.177 349.832 190.701 351.384C190.572 351.951 190.294 352.473 189.894 352.895C189.495 353.317 188.989 353.625 188.43 353.784L219.618 346.648C220.183 346.494 220.695 346.189 221.101 345.766C221.506 345.343 221.79 344.819 221.921 344.248C222.388 342.695 222.484 341.055 222.203 339.458C221.921 337.861 221.269 336.352 220.299 335.052Z" fill="#455A64"/>
<path d="M190.765 351.384C191.241 349.832 191.343 348.19 191.061 346.591C190.779 344.993 190.122 343.484 189.144 342.188C188.815 341.708 188.363 341.325 187.835 341.08C187.307 340.834 186.723 340.736 186.143 340.794L185.949 340.875C185.436 341.063 184.977 341.372 184.61 341.776C184.243 342.18 183.979 342.666 183.84 343.194C183.367 344.746 183.267 346.388 183.549 347.986C183.831 349.584 184.486 351.093 185.462 352.39C185.786 352.868 186.232 353.251 186.754 353.499C187.276 353.747 187.855 353.851 188.43 353.801H188.511C189.069 353.637 189.573 353.326 189.969 352.901C190.366 352.476 190.641 351.952 190.765 351.384Z" fill="#263238"/>
<path d="M372.475 424.594C372.154 424.136 371.722 423.767 371.22 423.52C370.719 423.274 370.163 423.157 369.604 423.183L338.271 430.351C338.851 430.295 339.437 430.396 339.965 430.644C340.493 430.893 340.944 431.279 341.271 431.762C342.245 433.056 342.9 434.562 343.182 436.157C343.464 437.753 343.365 439.392 342.893 440.942C342.753 441.506 342.469 442.024 342.068 442.445C341.667 442.866 341.163 443.175 340.606 443.342L371.794 436.222C372.353 436.057 372.86 435.748 373.263 435.327C373.667 434.906 373.954 434.387 374.097 433.822C374.575 432.265 374.678 430.617 374.396 429.013C374.114 427.408 373.456 425.894 372.475 424.594Z" fill="#455A64"/>
<path d="M338.044 430.351C338.109 430.344 338.174 430.344 338.239 430.351H338.044Z" fill="#455A64"/>
<path d="M342.958 440.909C343.43 439.359 343.529 437.72 343.247 436.125C342.965 434.53 342.31 433.024 341.336 431.729C341.009 431.246 340.558 430.86 340.03 430.612C339.502 430.363 338.916 430.262 338.336 430.318C338.271 430.311 338.206 430.311 338.141 430.318C337.629 430.509 337.172 430.821 336.807 431.228C336.443 431.635 336.183 432.124 336.049 432.654C335.573 434.203 335.472 435.843 335.754 437.439C336.036 439.035 336.693 440.541 337.671 441.833C337.995 442.312 338.441 442.695 338.963 442.943C339.485 443.191 340.063 443.295 340.639 443.244C341.194 443.088 341.699 442.791 342.106 442.382C342.512 441.973 342.806 441.465 342.958 440.909Z" fill="#263238"/>
<g opacity="0.4">
<path d="M220.299 335.052C219.972 334.598 219.537 334.232 219.033 333.988C218.528 333.745 217.971 333.631 217.412 333.658L186.078 340.794C186.657 340.736 187.242 340.834 187.77 341.08C188.297 341.325 188.75 341.708 189.079 342.188C190.057 343.484 190.714 344.993 190.995 346.591C191.277 348.19 191.176 349.832 190.7 351.384C190.572 351.951 190.293 352.473 189.894 352.895C189.494 353.317 188.989 353.625 188.43 353.784L219.618 346.648C220.182 346.494 220.695 346.189 221.1 345.766C221.506 345.343 221.789 344.819 221.921 344.248C222.387 342.695 222.484 341.055 222.202 339.458C221.92 337.861 221.269 336.352 220.299 335.052Z" fill="white"/>
</g>
<g opacity="0.4">
<path d="M372.475 424.594C372.154 424.136 371.722 423.767 371.221 423.52C370.719 423.274 370.163 423.157 369.604 423.183L338.271 430.351C338.852 430.295 339.437 430.396 339.965 430.644C340.493 430.893 340.944 431.279 341.271 431.762C342.245 433.056 342.9 434.562 343.182 436.157C343.464 437.753 343.365 439.392 342.893 440.942C342.754 441.506 342.469 442.024 342.068 442.445C341.667 442.866 341.163 443.175 340.606 443.342L371.794 436.222C372.353 436.057 372.86 435.748 373.264 435.327C373.667 434.906 373.955 434.387 374.097 433.822C374.576 432.265 374.678 430.617 374.396 429.013C374.114 427.408 373.456 425.894 372.475 424.594Z" fill="white"/>
<path d="M338.044 430.351C338.109 430.344 338.174 430.344 338.239 430.351H338.044Z" fill="white"/>
</g>
<path d="M337.622 432.816L325.167 435.93C314.944 438.506 304.12 436.987 295.001 431.697L180.889 365.818C179.761 365.179 178.85 364.217 178.275 363.055C177.699 361.893 177.485 360.586 177.659 359.301C177.834 358.016 178.389 356.814 179.254 355.848C180.119 354.882 181.253 354.197 182.511 353.882L187.506 352.649C189.225 351.254 189.03 343.68 185.381 343.129L180.143 344.41C176.986 345.178 174.132 346.876 171.952 349.285C169.771 351.693 168.364 354.701 167.913 357.919C167.462 361.136 167.988 364.415 169.423 367.33C170.857 370.245 173.134 372.662 175.959 374.268L290.135 440.082C297.772 444.515 306.443 446.853 315.273 446.861C319.433 446.827 323.573 446.282 327.599 445.239L339.795 442.206C341.466 440.958 341.271 433.384 337.622 432.816Z" fill="#BCBCBC"/>
<path d="M194.301 385.556V351.741L267.478 394.006V427.805L194.301 385.556Z" fill="#455A64"/>
<path d="M267.478 394.006L311.397 415.43V427.805H267.478V394.006Z" fill="#455A64"/>
<path d="M194.301 351.741L267.478 394.006L311.397 415.43L238.204 373.182L194.301 351.741Z" fill="#455A64"/>
<path opacity="0.1" d="M267.478 394.006L311.397 415.43V427.805H267.478V394.006Z" fill="white"/>
<path opacity="0.3" d="M194.301 351.741L267.478 394.006L311.397 415.43L238.204 373.182L194.301 351.741Z" fill="white"/>
<path opacity="0.2" d="M438.613 485.818C466.622 502.036 466.768 528.196 438.954 544.366C411.139 560.535 365.874 560.584 337.865 544.366C309.856 528.147 309.727 501.987 337.541 485.818C365.355 469.648 410.62 469.648 438.613 485.818Z" fill="black"/>
<path d="M385.612 303.086L391.759 276.277C383.378 277.45 375.452 280.806 368.778 286.008L336.601 311.309L358.739 318.137L385.612 303.086Z" fill="#FFA8A7"/>
<path d="M400.646 423.637L405.139 433.773C406.397 436.629 408.538 439.006 411.247 440.556C413.956 442.106 417.09 442.747 420.189 442.385L458.14 438.055C461.329 437.694 464.558 437.93 467.66 438.752L475.964 440.958V421.496L473.694 422.161C469.325 423.459 464.691 423.571 460.265 422.485L446.431 419.079C439.883 417.471 433.024 417.639 426.563 419.566L425.152 408.083L400.646 423.637Z" fill="#F28F8F"/>
<path d="M503.778 449.262C503.635 444.562 501.662 440.104 498.28 436.838C495.783 434.47 492.636 432.881 490.269 430.351C487.528 427.416 486.392 424.188 484.057 420.863C483.645 420.302 483.083 419.869 482.435 419.615C482.198 419.59 481.959 419.59 481.722 419.615C480.895 419.68 480.089 419.912 479.354 420.296C480.298 420.458 481.141 420.981 481.705 421.755C484.057 424.999 485.711 428.891 488.468 431.762C490.82 434.211 493.966 435.768 496.464 438.087C499.831 441.243 501.809 445.606 501.962 450.218C502.092 454.776 500.421 462.642 497.097 462.642C498.146 462.896 499.253 462.727 500.178 462.171C503.065 459.301 503.86 452.651 503.778 449.262Z" fill="#EBEBEB"/>
<path d="M484.057 420.863C486.392 424.188 487.528 427.351 490.269 430.351C492.637 432.881 495.783 434.47 498.28 436.838C501.662 440.104 503.635 444.562 503.778 449.261C503.778 452.651 503.065 459.301 500.292 462.123C503.827 459.998 504.8 452.489 504.687 448.824C504.531 444.215 502.56 439.855 499.205 436.692C496.707 434.373 493.545 432.816 491.193 430.351C488.436 427.48 487.317 424.318 484.965 421.09C484.672 420.69 484.302 420.353 483.875 420.099C483.449 419.845 482.976 419.681 482.484 419.615C483.114 419.877 483.659 420.309 484.057 420.863Z" fill="#455A64"/>
<path d="M472.85 421.658C472.045 422.012 471.16 422.14 470.288 422.031C470.288 422.031 467.725 421.772 466.882 421.609C465.26 421.301 465.098 423.134 465.098 423.134C466.063 423.236 467.036 423.236 468.001 423.134C468.22 423.471 468.509 423.758 468.847 423.976C469.185 424.194 469.566 424.338 469.963 424.399C470.776 424.558 471.57 424.803 472.331 425.129C472.708 425.301 473.027 425.58 473.246 425.932C473.465 426.284 473.576 426.693 473.564 427.107C473.418 428.016 472.526 428.551 471.942 429.313C471.671 429.756 471.516 430.261 471.494 430.78C471.471 431.299 471.581 431.816 471.812 432.281C471.292 432.057 470.711 432.021 470.167 432.177C469.622 432.334 469.149 432.674 468.828 433.141C468.219 434.121 467.852 435.233 467.758 436.384C467.591 437.151 467.536 437.937 467.596 438.72C467.623 439.114 467.73 439.499 467.912 439.85C468.093 440.202 468.344 440.512 468.65 440.763C468.96 441.005 469.343 441.137 469.736 441.137C470.13 441.137 470.512 441.005 470.823 440.763C472.899 444.137 482.387 445.418 487.139 451.792C491.89 458.165 492.928 462.69 497.145 462.69C500.389 462.69 502.011 454.824 502.011 450.267C501.857 445.655 499.88 441.292 496.513 438.136C494.015 435.817 490.869 434.26 488.517 431.811C485.76 428.94 484.106 425.048 481.754 421.804C481.19 421.03 480.346 420.506 479.402 420.344C479.117 420.312 478.828 420.312 478.543 420.344C476.58 420.422 474.649 420.867 472.85 421.658Z" fill="#EA454C"/>
<path d="M495.912 461.506L496.983 458.571C497.055 458.38 497.178 458.213 497.338 458.088C497.498 457.962 497.689 457.882 497.891 457.857C501.135 457.468 502.156 456.981 503.567 455.489C503.365 457.311 502.779 459.068 501.848 460.647C501.303 461.593 500.412 462.291 499.362 462.594C498.312 462.897 497.186 462.78 496.22 462.268C496.082 462.205 495.973 462.09 495.915 461.948C495.858 461.807 495.857 461.649 495.912 461.506Z" fill="#455A64"/>
<path d="M475.38 434.195C475.379 434.311 475.354 434.426 475.307 434.532C475.259 434.638 475.191 434.733 475.105 434.811C474.028 435.737 473.292 436.997 473.012 438.39C472.733 439.783 472.927 441.229 473.564 442.498C473.643 442.687 473.647 442.899 473.576 443.091C473.505 443.283 473.364 443.441 473.181 443.534C472.999 443.626 472.788 443.646 472.591 443.589C472.394 443.533 472.226 443.404 472.12 443.228C471.328 441.632 471.083 439.82 471.423 438.071C471.767 436.324 472.686 434.742 474.034 433.578C474.199 433.439 474.411 433.37 474.626 433.385C474.842 433.4 475.042 433.499 475.186 433.66C475.313 433.809 475.382 433.999 475.38 434.195Z" fill="#37474F"/>
<path d="M480.359 436.481C480.359 436.701 480.271 436.911 480.116 437.065C479.09 438.082 478.344 439.346 477.949 440.735C477.554 442.124 477.524 443.592 477.861 444.996C477.887 445.103 477.891 445.213 477.874 445.321C477.857 445.429 477.819 445.533 477.762 445.626C477.704 445.72 477.629 445.801 477.541 445.865C477.452 445.93 477.352 445.976 477.245 446.002C477.139 446.027 477.028 446.031 476.92 446.014C476.812 445.997 476.708 445.959 476.615 445.902C476.521 445.844 476.44 445.769 476.376 445.681C476.312 445.592 476.265 445.492 476.24 445.385C475.84 443.706 475.878 441.952 476.35 440.291C476.821 438.63 477.71 437.117 478.932 435.898C479.007 435.822 479.097 435.761 479.196 435.72C479.295 435.679 479.401 435.658 479.508 435.658C479.615 435.658 479.721 435.679 479.819 435.72C479.918 435.761 480.008 435.822 480.083 435.898C480.168 435.97 480.236 436.06 480.283 436.16C480.331 436.261 480.357 436.37 480.359 436.481Z" fill="#37474F"/>
<path d="M484.754 440.082C484.755 440.204 484.727 440.325 484.674 440.434C484.621 440.544 484.543 440.64 484.446 440.715C483.531 441.466 482.827 442.443 482.403 443.549C481.979 444.655 481.851 445.853 482.03 447.023C482.063 447.236 482.012 447.453 481.888 447.629C481.764 447.804 481.576 447.925 481.365 447.964C481.152 447.997 480.935 447.946 480.76 447.822C480.584 447.698 480.464 447.511 480.424 447.299C480.193 445.839 480.35 444.343 480.88 442.963C481.409 441.582 482.292 440.365 483.441 439.433C483.609 439.301 483.822 439.24 484.035 439.264C484.248 439.289 484.442 439.396 484.576 439.563C484.694 439.71 484.757 439.894 484.754 440.082Z" fill="#37474F"/>
<path d="M488.371 443.569C488.368 443.683 488.343 443.794 488.295 443.898C488.248 444.001 488.18 444.093 488.095 444.169C487.315 444.888 486.715 445.782 486.346 446.777C485.977 447.772 485.848 448.84 485.97 449.894C485.998 450.107 485.94 450.322 485.809 450.492C485.679 450.663 485.486 450.774 485.273 450.802C485.167 450.818 485.059 450.813 484.956 450.786C484.852 450.759 484.755 450.712 484.671 450.647C484.586 450.582 484.515 450.5 484.462 450.407C484.41 450.314 484.377 450.211 484.365 450.105C484.207 448.791 484.365 447.458 484.825 446.218C485.284 444.977 486.033 443.863 487.008 442.969C487.084 442.893 487.173 442.833 487.272 442.791C487.371 442.75 487.477 442.729 487.584 442.729C487.691 442.729 487.797 442.75 487.896 442.791C487.995 442.833 488.085 442.893 488.16 442.969C488.302 443.136 488.377 443.35 488.371 443.569Z" fill="#37474F"/>
<path d="M384.201 354.222C382.984 371.446 387.59 391.524 389.066 397.46L386.52 403.558C385.887 419.209 408.95 427.756 419.524 421.658C436.099 395.157 444.5 380.788 441.24 364.116L384.201 354.222Z" fill="#263238"/>
<path opacity="0.3" d="M390.445 394.8L400.646 374.495C392.116 371.949 385.612 361.78 385.612 361.78C386.926 370.424 395.165 375.906 395.165 375.906C391.544 381.508 389.884 388.154 390.445 394.8Z" fill="black"/>
<path d="M419.881 415.884C417.708 406.153 402.933 395.563 390.332 398.952L378.557 424.983C376.576 429.368 375.379 434.067 375.021 438.866L370.334 501.711C370.014 506.109 369.22 510.459 367.967 514.686L367.821 515.172L384.201 519.551C384.265 512.292 385.627 505.102 388.223 498.322L400.744 465.658C403.168 459.298 404.272 452.51 403.987 445.71L403.793 440.568L419.881 415.884Z" fill="#FFA8A7"/>
<path d="M358.609 547.122C363.302 546.975 367.754 545.003 371.016 541.624C373.4 539.127 374.989 535.981 377.503 533.629C380.438 530.872 383.682 529.736 386.991 527.401C387.552 526.989 387.985 526.427 388.239 525.779C388.264 525.542 388.264 525.303 388.239 525.066C388.177 524.24 387.951 523.435 387.575 522.698C387.419 523.644 386.894 524.49 386.115 525.049C382.871 527.401 378.995 529.055 376.124 531.812C373.659 534.164 372.102 537.327 369.783 539.808C366.627 543.175 362.264 545.153 357.652 545.306C353.111 545.436 345.229 543.782 345.229 540.441C344.974 541.49 345.143 542.597 345.699 543.522C348.521 546.344 355.203 547.122 358.609 547.122Z" fill="#EBEBEB"/>
<path d="M386.99 527.336C383.747 529.672 380.503 530.807 377.503 533.564C374.989 535.916 373.4 539.062 371.015 541.56C367.753 544.938 363.302 546.91 358.609 547.058C355.203 547.155 348.569 546.344 345.731 543.571C347.856 547.106 355.381 548.079 359.03 547.966C363.641 547.819 368.004 545.847 371.161 542.484C373.481 539.986 375.038 536.84 377.503 534.472C380.373 531.731 383.536 530.596 386.78 528.244C387.182 527.955 387.52 527.585 387.771 527.157C388.022 526.73 388.182 526.255 388.239 525.763C387.977 526.393 387.545 526.938 386.99 527.336Z" fill="#455A64"/>
<path d="M386.212 516.13C385.855 515.332 385.726 514.45 385.839 513.583C385.839 513.583 386.083 511.005 386.245 510.178C386.553 508.556 385.304 508.475 385.304 508.475C385.304 508.475 385.061 509.756 384.85 511.264C384.501 511.487 384.2 511.777 383.964 512.116C383.727 512.456 383.56 512.838 383.471 513.243C383.312 514.055 383.067 514.849 382.742 515.611C382.571 515.989 382.292 516.309 381.94 516.528C381.587 516.748 381.178 516.857 380.763 516.843C379.871 516.713 379.32 515.805 378.573 515.221C378.127 514.95 377.62 514.796 377.098 514.773C376.576 514.75 376.057 514.86 375.589 515.092C375.818 514.575 375.858 513.994 375.701 513.451C375.543 512.908 375.2 512.438 374.73 512.124C373.751 511.507 372.639 511.134 371.486 511.037C370.713 510.878 369.922 510.824 369.134 510.875C368.742 510.901 368.359 511.007 368.01 511.189C367.661 511.37 367.354 511.622 367.107 511.929C366.862 512.238 366.729 512.621 366.729 513.016C366.729 513.41 366.862 513.793 367.107 514.102C363.718 516.178 362.436 525.666 356.062 530.418C349.689 535.17 345.164 536.224 345.164 540.425C345.164 543.668 353.046 545.29 357.587 545.29C362.199 545.137 366.563 543.159 369.718 539.792C372.038 537.311 373.594 534.148 376.06 531.796C378.93 529.039 382.806 527.385 386.05 525.033C386.549 524.657 386.948 524.165 387.214 523.6C387.479 523.035 387.603 522.414 387.575 521.79C387.462 519.837 387.001 517.92 386.212 516.13Z" fill="#EA454C"/>
<path d="M346.347 539.192L349.283 540.262C349.48 540.332 349.652 540.455 349.782 540.619C349.911 540.783 349.991 540.979 350.013 541.187C350.386 544.43 350.872 545.452 352.364 546.847C350.549 546.653 348.796 546.072 347.223 545.144C346.275 544.596 345.577 543.701 345.275 542.649C344.972 541.597 345.089 540.468 345.601 539.5C345.668 539.368 345.78 539.263 345.917 539.207C346.054 539.15 346.207 539.145 346.347 539.192Z" fill="#455A64"/>
<path d="M373.675 518.676C373.557 518.676 373.441 518.65 373.334 518.599C373.228 518.549 373.134 518.475 373.059 518.384C372.125 517.313 370.866 516.578 369.475 516.292C368.077 516.014 366.626 516.214 365.355 516.859C365.162 516.956 364.938 516.972 364.732 516.904C364.527 516.835 364.357 516.688 364.26 516.495C364.164 516.301 364.148 516.077 364.216 515.872C364.285 515.666 364.432 515.497 364.625 515.4C366.228 514.582 368.06 514.327 369.826 514.677C371.591 515.028 373.187 515.962 374.356 517.33C374.495 517.492 374.564 517.702 374.548 517.914C374.533 518.126 374.435 518.324 374.275 518.465C374.195 518.539 374.1 518.596 373.997 518.632C373.894 518.668 373.784 518.683 373.675 518.676Z" fill="#37474F"/>
<path d="M371.372 523.638C371.153 523.638 370.943 523.55 370.789 523.395C369.774 522.371 368.513 521.625 367.127 521.23C365.741 520.835 364.276 520.805 362.874 521.141C362.77 521.167 362.661 521.173 362.555 521.157C362.448 521.141 362.346 521.104 362.254 521.048C362.161 520.992 362.081 520.919 362.018 520.832C361.955 520.745 361.909 520.646 361.885 520.541C361.858 520.439 361.852 520.332 361.867 520.227C361.882 520.123 361.918 520.022 361.972 519.932C362.027 519.841 362.099 519.762 362.184 519.7C362.269 519.637 362.366 519.592 362.469 519.568C364.148 519.165 365.903 519.202 367.565 519.673C369.226 520.145 370.738 521.035 371.956 522.26C372.068 522.374 372.144 522.519 372.174 522.676C372.204 522.834 372.186 522.996 372.124 523.144C372.061 523.291 371.957 523.417 371.823 523.505C371.689 523.593 371.533 523.639 371.372 523.638Z" fill="#37474F"/>
<path d="M367.837 527.969C367.713 527.967 367.59 527.939 367.479 527.886C367.367 527.833 367.267 527.756 367.188 527.661C366.439 526.741 365.463 526.033 364.357 525.606C363.25 525.18 362.051 525.049 360.879 525.228C360.664 525.262 360.444 525.21 360.268 525.082C360.091 524.954 359.973 524.762 359.938 524.547C359.904 524.332 359.956 524.112 360.084 523.935C360.212 523.759 360.404 523.64 360.619 523.606C362.078 523.377 363.57 523.534 364.948 524.064C366.326 524.593 367.54 525.476 368.469 526.623C368.568 526.742 368.631 526.887 368.651 527.04C368.67 527.194 368.645 527.35 368.578 527.49C368.512 527.63 368.407 527.748 368.275 527.83C368.144 527.912 367.992 527.954 367.837 527.953V527.969Z" fill="#37474F"/>
<path d="M364.301 531.65C364.187 531.651 364.074 531.627 363.971 531.579C363.867 531.531 363.775 531.462 363.701 531.374C362.977 530.597 362.08 530 361.082 529.634C360.085 529.268 359.015 529.142 357.96 529.266C357.746 529.285 357.533 529.222 357.364 529.089C357.196 528.957 357.084 528.765 357.052 528.552C357.038 528.446 357.046 528.338 357.074 528.234C357.103 528.13 357.152 528.034 357.218 527.949C357.285 527.865 357.367 527.794 357.461 527.742C357.555 527.689 357.658 527.656 357.765 527.644C359.079 527.488 360.411 527.647 361.652 528.106C362.893 528.566 364.006 529.313 364.901 530.288C365.002 530.406 365.067 530.55 365.09 530.704C365.112 530.858 365.091 531.015 365.028 531.157C364.965 531.299 364.864 531.421 364.736 531.508C364.607 531.595 364.456 531.644 364.301 531.65Z" fill="#37474F"/>
<path d="M427.179 274.866C418.302 274.169 409.387 274.104 400.5 274.672C396.511 274.731 392.584 275.673 389.001 277.429C386.719 278.885 384.751 280.783 383.214 283.011C381.676 285.24 380.6 287.753 380.049 290.404C378.992 295.702 378.654 301.119 379.043 306.508C379.514 324.121 380.827 339.156 382.725 356.671C400.224 366.775 423.271 371.56 442.733 366.013C443.008 343.308 441.889 319.288 437.316 297.037C435.694 288.993 433.342 280.3 427.179 274.866Z" fill="#455A64"/>
<path opacity="0.3" d="M427.179 274.866C418.302 274.169 409.387 274.104 400.5 274.672C396.511 274.731 392.584 275.673 389.001 277.429C386.719 278.885 384.751 280.783 383.214 283.011C381.676 285.24 380.6 287.753 380.049 290.404C378.992 295.702 378.654 301.119 379.043 306.508C379.514 324.121 380.827 339.156 382.725 356.671C400.224 366.775 423.271 371.56 442.733 366.013C443.008 343.308 441.889 319.288 437.316 297.037C435.694 288.993 433.342 280.3 427.179 274.866Z" fill="white"/>
<path d="M480.067 320.067C480.289 317.668 479.913 315.251 478.973 313.032C478.034 310.814 476.56 308.862 474.683 307.352L442.408 281.289C438.037 277.747 432.762 275.5 427.179 274.801L424.017 274.558C421.13 277.234 419.865 296.291 432.872 304.027L460.929 320.407L460.654 356.46L451.053 367.424C450.879 367.615 450.753 367.844 450.686 368.093C450.619 368.342 450.612 368.603 450.666 368.855C450.72 369.107 450.833 369.343 450.996 369.542C451.159 369.742 451.368 369.9 451.604 370.003C452.156 370.261 452.77 370.359 453.376 370.284C453.981 370.21 454.553 369.966 455.026 369.581L458.14 367.035C456.21 370.668 454.523 374.803 452.593 378.388C452.112 379.093 451.873 379.935 451.912 380.788C451.977 381.148 452.121 381.489 452.335 381.786C452.548 382.084 452.825 382.33 453.145 382.507C453.777 382.868 454.479 383.089 455.204 383.156C457.74 383.453 460.307 382.996 462.584 381.842C464.854 380.69 466.859 379.077 468.471 377.106C471.554 373.395 473.402 368.814 473.758 364.002C476.657 349.482 478.763 334.815 480.067 320.067Z" fill="#FFA8A7"/>
<path d="M394.694 267.974V270.893C394.62 273.032 394.227 275.147 393.527 277.169C393.234 278.021 393.234 278.945 393.527 279.797C393.827 280.512 394.285 281.151 394.866 281.664C395.447 282.178 396.137 282.554 396.884 282.765C398.366 283.162 399.92 283.212 401.425 282.911C405.925 282.143 410.013 279.818 412.972 276.342L412.307 256.378L394.694 267.974Z" fill="#FFA8A7"/>
<path opacity="0.2" d="M408.772 265.054C410.2 262.558 411.115 259.801 411.464 256.945L394.694 267.958V270.877C394.678 271.731 394.597 272.582 394.451 273.423C396.816 273.013 399.12 272.31 401.311 271.331C404.357 270.011 406.95 267.83 408.772 265.054Z" fill="black"/>
<path d="M376.092 235.586C374.176 235.648 372.28 235.183 370.61 234.242C368.94 233.302 367.56 231.921 366.62 230.25C366.487 230.005 366.429 229.726 366.453 229.448C366.476 229.17 366.581 228.906 366.753 228.686C366.926 228.467 367.159 228.304 367.423 228.215C367.688 228.127 367.973 228.118 368.242 228.19C369.567 228.425 370.923 228.425 372.248 228.19C370.72 226.201 369.603 223.928 368.962 221.502C368.322 219.077 368.171 216.548 368.518 214.064C368.561 213.788 368.668 213.526 368.83 213.298C368.993 213.071 369.207 212.885 369.455 212.756C369.703 212.626 369.977 212.557 370.257 212.553C370.536 212.55 370.813 212.612 371.064 212.734C376.563 215.461 382.681 216.697 388.807 216.318C392.05 216.091 395.294 215.394 398.538 215.151C401.801 214.746 405.112 215.251 408.107 216.61C409.611 217.302 410.899 218.39 411.831 219.759C412.762 221.128 413.303 222.726 413.394 224.379C413.766 223.849 414.249 223.407 414.809 223.082C415.369 222.757 415.993 222.558 416.637 222.498C417.31 222.416 417.993 222.474 418.643 222.666C419.293 222.858 419.896 223.182 420.416 223.617L414.805 226.731C415.857 226.521 416.949 226.664 417.911 227.14C418.873 227.615 419.651 228.395 420.124 229.358C420.949 231.245 421.305 233.304 421.162 235.359C421.268 238.067 421.149 240.779 420.805 243.468C420.438 246.186 419.37 248.762 417.708 250.945C416.246 252.728 414.296 254.047 412.096 254.74C409.1 255.577 405.918 255.475 402.982 254.448C400.066 253.431 397.292 252.046 394.726 250.328C388.076 245.996 381.838 241.061 376.092 235.586Z" fill="#263238"/>
<path d="M375.735 230.153C373.856 241.441 375.101 253.028 379.336 263.66C380.107 266.208 381.712 268.424 383.893 269.952C386.293 271.331 389.278 271.039 392.002 270.634C396.446 270.132 400.779 268.91 404.831 267.017C408.916 265.092 412.1 261.664 413.718 257.448C415.17 257.744 416.675 257.613 418.054 257.072C419.432 256.531 420.625 255.603 421.487 254.399C423.198 251.9 424.083 248.928 424.017 245.901C424.017 243.987 423.66 241.716 421.941 240.873C421.096 240.615 420.197 240.592 419.34 240.806C418.482 241.02 417.7 241.464 417.076 242.089C414.767 243.946 413.072 246.456 412.21 249.29C410.945 244.603 408.966 240.078 407.701 235.407C407.416 233.508 406.448 231.778 404.977 230.542C403.014 229.277 400.452 230.007 398.181 230.542C390.789 232.328 383.062 232.194 375.735 230.153Z" fill="#FFA8A7"/>
<path d="M389.375 244.36L383.909 253.588L390.429 254.804L389.375 244.36Z" fill="#F28F8F"/>
<path d="M396.722 257.983L391.759 260.4C392.184 260.963 392.782 261.373 393.461 261.566C394.14 261.759 394.863 261.725 395.521 261.47C396.094 261.118 396.527 260.578 396.746 259.942C396.965 259.306 396.956 258.613 396.722 257.983Z" fill="#F28F8F"/>
<path opacity="0.3" d="M396.722 257.983L391.759 260.4C392.184 260.963 392.782 261.373 393.461 261.566C394.14 261.759 394.863 261.725 395.521 261.47C396.094 261.118 396.527 260.578 396.746 259.942C396.965 259.306 396.956 258.613 396.722 257.983Z" fill="black"/>
<path d="M393.802 261.681C394.379 261.794 394.976 261.737 395.521 261.519C395.976 261.263 396.345 260.879 396.581 260.414C396.818 259.95 396.912 259.426 396.851 258.908C396.143 258.9 395.454 259.141 394.905 259.589C394.592 259.847 394.333 260.165 394.144 260.524C393.954 260.883 393.838 261.277 393.802 261.681Z" fill="#F28F8F"/>
<path d="M398.798 244.733C398.848 245.105 398.785 245.483 398.619 245.819C398.452 246.155 398.189 246.434 397.863 246.619C397.537 246.805 397.162 246.889 396.788 246.86C396.414 246.831 396.057 246.691 395.764 246.458C395.47 246.224 395.252 245.909 395.139 245.551C395.026 245.193 395.023 244.81 395.129 244.45C395.236 244.09 395.447 243.771 395.737 243.532C396.026 243.293 396.381 243.147 396.754 243.111C397.24 243.056 397.728 243.196 398.111 243.5C398.494 243.804 398.741 244.247 398.798 244.733Z" fill="#263238"/>
<path d="M383.115 245.706C383.163 245.962 383.157 246.225 383.098 246.479C383.039 246.733 382.928 246.972 382.771 247.181C382.615 247.389 382.417 247.563 382.19 247.691C381.963 247.819 381.712 247.899 381.453 247.925C381.193 247.951 380.932 247.923 380.684 247.842C380.436 247.761 380.207 247.63 380.013 247.456C379.818 247.283 379.662 247.071 379.554 246.834C379.446 246.597 379.388 246.34 379.384 246.079C379.378 245.608 379.548 245.152 379.862 244.8C380.176 244.449 380.61 244.228 381.078 244.181C381.547 244.134 382.016 244.265 382.393 244.547C382.77 244.829 383.028 245.243 383.115 245.706Z" fill="#263238"/>
<path d="M380.552 238.473L376.692 241.716C376.462 241.22 376.388 240.666 376.481 240.127C376.574 239.588 376.828 239.09 377.211 238.7C377.69 238.351 378.258 238.145 378.849 238.105C379.44 238.065 380.03 238.192 380.552 238.473Z" fill="#263238"/>
<path d="M396.495 236.624L400.922 239.073C401.051 238.544 401.014 237.988 400.817 237.48C400.62 236.973 400.272 236.538 399.819 236.235C399.282 235.991 398.689 235.899 398.103 235.967C397.517 236.036 396.961 236.263 396.495 236.624Z" fill="#263238"/>
<path d="M397.727 346.146C397.727 345.692 397.727 345.254 397.613 344.816C397.068 341.075 395.454 337.571 392.966 334.726C390.477 331.88 387.219 329.814 383.585 328.776L359.452 314.179L343.233 306.07L336.552 311.341C335.048 312.51 333.92 314.095 333.308 315.899C332.522 318.306 332.706 320.925 333.82 323.2C334.935 325.474 336.892 327.224 339.276 328.079L378.2 341.799C380.745 344.461 382.361 347.874 382.806 351.53C382.909 352.603 383.121 353.663 383.439 354.693C383.984 355.916 384.911 356.929 386.08 357.581C387.25 358.233 388.599 358.488 389.926 358.309C391.24 358.109 392.488 357.604 393.572 356.835C394.656 356.066 395.546 355.055 396.17 353.882C397.422 351.506 397.962 348.82 397.727 346.146Z" fill="#FFA8A7"/>
<path d="M384.72 328.776V326.424H383.001V327.284L379.335 325.143C378.954 324.921 378.52 324.804 378.079 324.804C377.637 324.804 377.203 324.921 376.822 325.143L370.707 328.679V327.657L369.085 327.803V330.122C369.087 330.268 369.126 330.41 369.2 330.535C369.275 330.661 369.38 330.764 369.507 330.836L374.535 333.755C374.919 333.971 375.351 334.084 375.792 334.084C376.232 334.084 376.665 333.971 377.049 333.755L384.428 329.49C384.549 329.421 384.651 329.323 384.722 329.203C384.793 329.084 384.831 328.947 384.833 328.808L384.72 328.776Z" fill="#EA454C"/>
<path d="M376.757 323.213L370.513 326.83C370.401 326.889 370.307 326.978 370.242 327.086C370.176 327.195 370.142 327.319 370.142 327.446C370.142 327.573 370.176 327.697 370.242 327.806C370.307 327.914 370.401 328.003 370.513 328.062L374.795 330.528C375.119 330.719 375.488 330.819 375.865 330.819C376.241 330.819 376.611 330.719 376.935 330.528L383.196 326.911C383.303 326.848 383.393 326.758 383.455 326.65C383.517 326.542 383.549 326.419 383.549 326.295C383.549 326.17 383.517 326.047 383.455 325.939C383.393 325.831 383.303 325.741 383.196 325.678L378.898 323.213C378.573 323.022 378.204 322.921 377.827 322.921C377.451 322.921 377.081 323.022 376.757 323.213Z" fill="#EA454C"/>
<path opacity="0.3" d="M384.72 328.776V326.424H383.001V327.284L379.335 325.143C378.954 324.921 378.52 324.804 378.079 324.804C377.637 324.804 377.203 324.921 376.822 325.143L370.707 328.679V327.657L369.085 327.803V330.122C369.087 330.268 369.126 330.41 369.2 330.535C369.275 330.661 369.38 330.764 369.507 330.836L374.535 333.755C374.919 333.971 375.351 334.084 375.792 334.084C376.232 334.084 376.665 333.971 377.049 333.755L384.428 329.49C384.549 329.421 384.651 329.323 384.722 329.203C384.793 329.084 384.831 328.947 384.833 328.808L384.72 328.776Z" fill="black"/>
<path d="M376.74 322.824L369.393 327.073C369.265 327.145 369.158 327.25 369.084 327.377C369.01 327.503 368.97 327.648 368.97 327.795C368.97 327.942 369.01 328.086 369.084 328.213C369.158 328.34 369.265 328.445 369.393 328.517L374.47 331.42C374.854 331.636 375.286 331.749 375.727 331.749C376.167 331.749 376.6 331.636 376.984 331.42L384.363 327.154C384.487 327.079 384.59 326.973 384.661 326.847C384.733 326.72 384.77 326.578 384.77 326.432C384.77 326.287 384.733 326.145 384.661 326.018C384.59 325.892 384.487 325.786 384.363 325.711L379.335 322.824C378.944 322.586 378.495 322.46 378.038 322.46C377.58 322.46 377.131 322.586 376.74 322.824Z" fill="#EA454C"/>
<path opacity="0.5" d="M376.757 323.213L370.513 326.83C370.401 326.889 370.307 326.978 370.242 327.086C370.176 327.195 370.142 327.319 370.142 327.446C370.142 327.573 370.176 327.697 370.242 327.806C370.307 327.914 370.401 328.003 370.513 328.062L374.795 330.528C375.119 330.719 375.488 330.819 375.865 330.819C376.241 330.819 376.611 330.719 376.935 330.528L383.196 326.911C383.303 326.848 383.393 326.758 383.455 326.65C383.517 326.542 383.549 326.419 383.549 326.295C383.549 326.17 383.517 326.047 383.455 325.939C383.393 325.831 383.303 325.741 383.196 325.678L378.898 323.213C378.573 323.022 378.204 322.921 377.827 322.921C377.451 322.921 377.081 323.022 376.757 323.213Z" fill="white"/>
<path d="M373.984 340.275C372.994 339.35 372.459 334.306 374.422 332.668L369.394 329.765C367.772 331.825 368.178 336.253 369.086 338.491C369.193 338.747 369.354 338.977 369.558 339.164C369.763 339.352 370.005 339.493 370.27 339.577C371.243 339.902 372.881 340.469 373.513 340.68C373.707 340.75 373.913 340.776 374.118 340.756C374.323 340.736 374.521 340.672 374.697 340.567L373.984 340.275Z" fill="#455A64"/>
</svg>
