<svg width="29" height="29" viewBox="0 0 29 29" fill="none" xmlns="http://www.w3.org/2000/svg">
<path d="M3.33654 14.3972C2.07456 12.1947 1.46521 10.3963 1.09779 8.57339C0.554381 5.87729 1.79795 3.24362 3.85804 1.56313C4.72872 0.852889 5.72681 1.09556 6.24167 2.02002L7.40402 4.10709C8.32534 5.76136 8.78599 6.58849 8.69462 7.46541C8.60326 8.34234 7.982 9.05655 6.73949 10.485L3.33654 14.3972ZM3.33654 14.3972C5.89091 18.8549 9.89952 22.8692 14.3586 25.4287M14.3586 25.4287C16.5592 26.6917 18.356 27.3016 20.1775 27.6693C22.8712 28.2132 25.5027 26.9685 27.1817 24.9067C27.8914 24.0353 27.649 23.0364 26.7252 22.521L24.64 21.3577C22.987 20.4356 22.1607 19.9746 21.2845 20.066C20.4083 20.1574 19.6947 20.7792 18.2675 22.0228L14.3586 25.4287ZM16.9443 7.58833C18.8388 8.39356 20.3572 9.9131 21.1617 11.8093M17.8149 1.15082C22.5235 2.51079 26.2347 6.22494 27.5937 10.9375" stroke="#EA454C" stroke-width="1.5" stroke-linecap="round" stroke-linejoin="round"/>
</svg>
