<svg width="16" height="22" viewBox="0 0 16 22" fill="none" xmlns="http://www.w3.org/2000/svg">
<path fill-rule="evenodd" clip-rule="evenodd" d="M2.51145 9.44847C1.53527 9.44847 1.33154 9.64022 1.33154 10.5587V12.2241C1.33154 13.1427 1.53527 13.3344 2.51145 13.3344H4.87125V19.996C4.87125 20.9144 5.07498 21.1062 6.05116 21.1062H8.41096C9.38718 21.1062 9.59085 20.9144 9.59085 19.996V13.3344H12.2406C12.981 13.3344 13.1717 13.199 13.3751 12.5292L13.8808 10.8638C14.2291 9.71637 14.0145 9.44847 12.7462 9.44847H9.59085V6.67287C9.59085 6.05969 10.1191 5.5626 10.7707 5.5626H14.129C15.1051 5.5626 15.3089 5.3709 15.3089 4.45235V2.23184C15.3089 1.31328 15.1051 1.12158 14.129 1.12158H10.7707C7.51252 1.12158 4.87125 3.60698 4.87125 6.67287V9.44847H2.51145Z" stroke="#C23B40" stroke-width="1.125" stroke-linejoin="round"/>
</svg>
