<svg width="22" height="22" viewBox="0 0 22 22" fill="none" xmlns="http://www.w3.org/2000/svg">
<path d="M2.83723 2.91144L2.30668 2.38133L2.30667 2.38134L2.83723 2.91144ZM19.0285 2.91144L19.5591 2.38135L19.5591 2.38132L19.0285 2.91144ZM19.0285 19.1165L19.5591 19.6467L19.5591 19.6466L19.0285 19.1165ZM2.83723 19.1165L2.30666 19.6466L2.30668 19.6466L2.83723 19.1165ZM16.4317 6.26819C16.846 6.26819 17.1817 5.93241 17.1817 5.51819C17.1817 5.10398 16.846 4.76819 16.4317 4.76819V6.26819ZM16.4228 4.76819C16.0085 4.76819 15.6728 5.10398 15.6728 5.51819C15.6728 5.93241 16.0085 6.26819 16.4228 6.26819V4.76819ZM2.19824 11.014C2.19824 8.75533 2.19983 7.13674 2.36519 5.90579C2.52766 4.69634 2.83576 3.97403 3.36779 3.44154L2.30667 2.38134C1.44972 3.23903 1.06332 4.33054 0.878542 5.70608C0.696652 7.06012 0.698242 8.7977 0.698242 11.014H2.19824ZM3.36778 3.44155C3.89973 2.90915 4.62117 2.60091 5.82928 2.43834C7.05904 2.27287 8.6761 2.27127 10.9329 2.27127V0.771271C8.71854 0.771271 6.98228 0.769675 5.62924 0.951741C4.25456 1.13672 3.16373 1.52356 2.30668 2.38133L3.36778 3.44155ZM10.9329 2.27127C13.1896 2.27127 14.8067 2.27287 16.0364 2.43834C17.2446 2.60091 17.966 2.90915 18.498 3.44156L19.5591 2.38132C18.702 1.52356 17.6112 1.13672 16.2365 0.951741C14.8834 0.769675 13.1472 0.771271 10.9329 0.771271V2.27127ZM18.498 3.44154C19.03 3.97402 19.3381 4.69633 19.5005 5.90578C19.6659 7.13674 19.6675 8.75533 19.6675 11.014H21.1675C21.1675 8.7977 21.1691 7.06012 20.9872 5.70609C20.8024 4.33054 20.416 3.23904 19.5591 2.38135L18.498 3.44154ZM19.6675 11.014C19.6675 13.2726 19.6659 14.8912 19.5005 16.1221C19.3381 17.3316 19.03 18.0539 18.498 18.5864L19.5591 19.6466C20.416 18.7889 20.8024 17.6974 20.9872 16.3218C21.1691 14.9678 21.1675 13.2302 21.1675 11.014H19.6675ZM18.498 18.5864C17.966 19.1188 17.2446 19.427 16.0364 19.5896C14.8067 19.7551 13.1896 19.7567 10.9329 19.7567V21.2567C13.1472 21.2567 14.8834 21.2583 16.2365 21.0762C17.6112 20.8912 18.702 20.5044 19.5591 19.6467L18.498 18.5864ZM10.9329 19.7567C8.6761 19.7567 7.05903 19.7551 5.82928 19.5896C4.62116 19.427 3.89972 19.1188 3.36778 18.5864L2.30668 19.6466C3.16373 20.5044 4.25457 20.8912 5.62925 21.0762C6.98228 21.2583 8.71854 21.2567 10.9329 21.2567V19.7567ZM3.3678 18.5864C2.83576 18.0539 2.52766 17.3316 2.36519 16.1221C2.19983 14.8912 2.19824 13.2726 2.19824 11.014H0.698242C0.698242 13.2302 0.696652 14.9678 0.878542 16.3218C1.06332 17.6974 1.44971 18.7889 2.30666 19.6466L3.3678 18.5864ZM14.6756 11.014C14.6756 13.0837 12.9993 14.7605 10.9329 14.7605V16.2605C13.829 16.2605 16.1756 13.911 16.1756 11.014H14.6756ZM10.9329 14.7605C8.86642 14.7605 7.19015 13.0837 7.19015 11.014H5.69015C5.69015 13.911 8.03679 16.2605 10.9329 16.2605V14.7605ZM7.19015 11.014C7.19015 8.94421 8.86642 7.26743 10.9329 7.26743V5.76743C8.03679 5.76743 5.69015 8.11698 5.69015 11.014H7.19015ZM10.9329 7.26743C12.9993 7.26743 14.6756 8.94421 14.6756 11.014H16.1756C16.1756 8.11699 13.829 5.76743 10.9329 5.76743V7.26743ZM16.4317 4.76819H16.4228V6.26819H16.4317V4.76819Z" fill="#C23B40"/>
</svg>
