<svg width="12" height="25" viewBox="0 0 12 25" fill="none" xmlns="http://www.w3.org/2000/svg">
<path opacity="0.3" d="M9.15708 3.20935C9.29262 3.21087 9.42651 3.23828 9.55109 3.29003C9.67566 3.34178 9.78846 3.41684 9.88303 3.5109L10.7287 4.34242C10.9175 4.52964 11.0228 4.78123 11.0219 5.04296L10.9894 7.37077C10.9878 7.50206 10.9595 7.63176 10.9061 7.75244C10.8527 7.87311 10.7752 7.98238 10.6781 8.07399L9.81968 8.89318C9.72367 8.98586 9.60972 9.05928 9.48436 9.10922C9.359 9.15916 9.2247 9.18463 9.08916 9.18419L6.86075 9.16806L6.81244 15.4323L9.04063 15.4766C9.17617 15.4781 9.31006 15.5056 9.43464 15.5573C9.55921 15.6091 9.67202 15.6841 9.76658 15.7782L10.6123 16.6097C10.7079 16.7027 10.7837 16.8131 10.8353 16.9345C10.8868 17.0559 10.9131 17.186 10.9127 17.3173L10.8946 19.6594C10.8915 19.9211 10.7823 20.1711 10.5907 20.3556L9.74692 21.1608C9.65092 21.2535 9.53697 21.3269 9.41161 21.3768C9.28625 21.4267 9.15195 21.4522 9.0164 21.4518L6.77343 21.4356L6.75515 23.8058C6.75492 23.8716 6.74124 23.9368 6.71488 23.9975C6.68853 24.0582 6.65003 24.1133 6.6016 24.1595C6.55317 24.2057 6.49578 24.2421 6.43273 24.2668C6.36968 24.2914 6.30222 24.3037 6.23424 24.3029L5.21471 24.2955C5.14673 24.2953 5.07947 24.2821 5.01681 24.2565C4.95414 24.231 4.89732 24.1937 4.84961 24.1468C4.8019 24.0999 4.76425 24.0443 4.73884 23.9832C4.71342 23.9221 4.70074 23.8568 4.70153 23.7909L4.71981 21.4207L2.47684 21.4045C2.3413 21.4029 2.20741 21.3755 2.08283 21.3238C1.95826 21.272 1.84545 21.197 1.75088 21.1029L0.905212 20.2714C0.716404 20.0842 0.611106 19.8326 0.61202 19.5709L0.681221 17.208C0.682786 17.0767 0.711089 16.947 0.764509 16.8264C0.817929 16.7057 0.895413 16.5964 0.99252 16.5048L1.81424 15.7206C1.91024 15.6279 2.02419 15.5545 2.14955 15.5046C2.27491 15.4547 2.40921 15.4292 2.54476 15.4296L4.77316 15.4457L4.82147 9.18153L2.59328 9.13718C2.45775 9.13567 2.32385 9.10825 2.19928 9.0565C2.0747 9.00476 1.9619 8.9297 1.86733 8.83563L1.02166 8.00411C0.850366 7.8197 0.756145 7.58008 0.757379 7.33201L0.77544 4.98998C0.778563 4.72827 0.887729 4.47823 1.0794 4.29376L1.93781 3.47457C2.03381 3.38189 2.14776 3.30847 2.27312 3.25853C2.39848 3.20859 2.53278 3.18312 2.66833 3.18356L4.9113 3.19979L4.92957 0.829546C4.9298 0.763694 4.94349 0.698539 4.96984 0.637839C4.9962 0.577137 5.0347 0.522091 5.08313 0.475877C5.13155 0.429662 5.18895 0.393193 5.252 0.368573C5.31505 0.343954 5.38251 0.33167 5.45048 0.332432L6.47001 0.33981C6.538 0.340031 6.60526 0.353289 6.66792 0.378818C6.73058 0.404348 6.78741 0.441644 6.83512 0.488554C6.88283 0.535465 6.92048 0.591061 6.94589 0.652137C6.97131 0.713213 6.98399 0.778559 6.9832 0.844407L6.91411 3.19312L9.15708 3.20935Z" fill="#EA454C"/>
</svg>
