<svg width="32" height="32" viewBox="0 0 32 32" fill="none" xmlns="http://www.w3.org/2000/svg">
<path d="M30.8269 8.80624C30.9874 8.96811 31.1143 9.16009 31.2004 9.37116C31.2866 9.58223 31.3302 9.80824 31.3289 10.0362V12.0631C31.327 12.5176 31.1467 12.9531 30.8269 13.2758L27.9536 16.1169C27.7919 16.2775 27.6001 16.4045 27.3892 16.4907C27.1783 16.5769 26.9525 16.6206 26.7247 16.6193H24.6995C24.4717 16.6206 24.2459 16.5769 24.035 16.4907C23.8241 16.4045 23.6323 16.2775 23.4705 16.1169L20.8222 13.4664L13.137 21.1582L15.7506 23.8434C15.9111 24.0053 16.038 24.1972 16.1241 24.4083C16.2103 24.6194 16.2539 24.8454 16.2526 25.0734V27.1003C16.2539 27.3283 16.2103 27.5543 16.1241 27.7654C16.038 27.9764 15.9111 28.1684 15.7506 28.3303L12.8773 31.206C12.5549 31.5261 12.1198 31.7065 11.6657 31.7084H9.67513C9.44733 31.7098 9.22151 31.6661 9.01062 31.5798C8.79973 31.4936 8.60791 31.3666 8.44618 31.206L5.78056 28.5382L2.87262 31.4486C2.79217 31.5298 2.69645 31.5942 2.59098 31.6382C2.48552 31.6822 2.3724 31.7048 2.25815 31.7048C2.1439 31.7048 2.03078 31.6822 1.92531 31.6382C1.81985 31.5942 1.72413 31.5298 1.64367 31.4486L0.43203 30.2359C0.350911 30.1554 0.286527 30.0596 0.242588 29.954C0.19865 29.8485 0.176028 29.7353 0.176028 29.6209C0.176028 29.5066 0.19865 29.3933 0.242588 29.2878C0.286527 29.1822 0.350911 29.0864 0.43203 29.0059L3.33997 26.0955L0.674358 23.4276C0.513935 23.2657 0.387015 23.0738 0.300876 22.8627C0.214738 22.6516 0.171075 22.4256 0.172392 22.1976V20.1707C0.174304 19.7162 0.354582 19.2807 0.674358 18.958L3.63423 16.1169C3.79596 15.9564 3.98778 15.8293 4.19867 15.7431C4.40956 15.6569 4.63538 15.6132 4.86318 15.6145H6.80181C7.02961 15.6132 7.25543 15.6569 7.46632 15.7431C7.67721 15.8293 7.86902 15.9564 8.03076 16.1169L10.6791 18.7675L18.3643 11.0757L15.7506 8.39046C15.5902 8.22859 15.4633 8.03661 15.3772 7.82554C15.291 7.61447 15.2474 7.38846 15.2487 7.16046V5.13357C15.2682 4.70324 15.4471 4.2956 15.7506 3.99019L18.624 1.11442C18.9464 0.794373 19.3815 0.613942 19.8356 0.612028H21.8608C22.0886 0.61071 22.3144 0.65441 22.5253 0.740622C22.7362 0.826834 22.928 0.953862 23.0897 1.11442L25.7554 3.7823L28.6633 0.871887C28.7437 0.7907 28.8395 0.72626 28.9449 0.682284C29.0504 0.638309 29.1635 0.615668 29.2778 0.615668C29.392 0.615668 29.5051 0.638309 29.6106 0.682284C29.7161 0.72626 29.8118 0.7907 29.8922 0.871887L31.1039 2.08456C31.185 2.16508 31.2494 2.26089 31.2933 2.36644C31.3373 2.47199 31.3599 2.58521 31.3599 2.69956C31.3599 2.81391 31.3373 2.92712 31.2933 3.03268C31.2494 3.13823 31.185 3.23403 31.1039 3.31456L28.1613 6.13835L30.8269 8.80624Z" fill="#C23B40"/>
</svg>
