<svg width="22" height="19" viewBox="0 0 22 19" fill="none" xmlns="http://www.w3.org/2000/svg">
<path d="M16.0908 17.2011L16.2032 17.7522L16.2032 17.7522L16.0908 17.2011ZM20.0144 3.01795L20.4586 2.6728L20.4586 2.6728L20.0144 3.01795ZM16.0908 1.22658L15.9783 1.77773L15.9783 1.77773L16.0908 1.22658ZM5.80063 1.22658L5.68818 0.675436L5.68818 0.675436L5.80063 1.22658ZM1.87703 3.01795L1.43288 2.67279L1.43287 2.6728L1.87703 3.01795ZM1.87703 15.4096L1.43287 15.7548L1.43288 15.7548L1.87703 15.4096ZM5.80063 17.2011L5.68818 17.7522L5.6882 17.7522L5.80063 17.2011ZM14.9014 9.52647L15.4478 9.6602L15.4478 9.66017L14.9014 9.52647ZM12.3883 11.4362L12.6599 11.9288L12.66 11.9287L12.3883 11.4362ZM9.12148 12.6727L8.97865 13.2167L8.97877 13.2167L9.12148 12.6727ZM8.4877 12.3552L8.84151 11.9179L8.8415 11.9179L8.4877 12.3552ZM8.4877 6.07241L8.84152 6.50969L8.84154 6.50968L8.4877 6.07241ZM9.12148 5.75502L9.26421 6.29911L9.26422 6.2991L9.12148 5.75502ZM12.3883 6.99146L12.6599 6.49891L12.6599 6.49889L12.3883 6.99146ZM14.9014 8.90116L15.4478 8.76746L15.4478 8.76743L14.9014 8.90116ZM10.9457 18.2698C12.7892 18.2698 14.5595 18.0875 16.2032 17.7522L15.9783 16.6499C14.4107 16.9697 12.7158 17.1448 10.9457 17.1448V18.2698ZM16.2032 17.7522C18.1765 17.3496 19.3969 17.121 20.4586 15.7548L19.5703 15.0645C18.8017 16.0535 18.0163 16.2341 15.9783 16.6499L16.2032 17.7522ZM20.4586 15.7548C21.5172 14.3925 21.492 12.8112 21.492 10.1766H20.367C20.367 12.9493 20.3419 14.0716 19.5703 15.0645L20.4586 15.7548ZM21.492 10.1766V8.25106H20.367V10.1766H21.492ZM21.492 8.25106C21.492 5.61642 21.5172 4.03507 20.4586 2.6728L19.5703 3.36311C20.3419 4.35602 20.367 5.47831 20.367 8.25106H21.492ZM20.4586 2.6728C19.3969 1.30665 18.1765 1.07803 16.2032 0.675436L15.9783 1.77773C18.0163 2.19352 18.8017 2.37409 19.5703 3.36311L20.4586 2.6728ZM16.2032 0.675436C14.5595 0.340082 12.7892 0.157852 10.9457 0.157852V1.28285C12.7158 1.28285 14.4107 1.45789 15.9783 1.77773L16.2032 0.675436ZM10.9457 0.157852C9.10223 0.157852 7.33192 0.340082 5.68818 0.675436L5.91307 1.77773C7.48078 1.45789 9.17567 1.28285 10.9457 1.28285V0.157852ZM5.68818 0.675436C3.71487 1.07803 2.49454 1.30665 1.43288 2.67279L2.32118 3.36311C3.08978 2.37409 3.87509 2.19352 5.91307 1.77773L5.68818 0.675436ZM1.43287 2.6728C0.374244 4.03507 0.399414 5.61642 0.399414 8.25106H1.52441C1.52441 5.47831 1.54958 4.35602 2.32118 3.36311L1.43287 2.6728ZM0.399414 8.25106V10.1766H1.52441V8.25106H0.399414ZM0.399414 10.1766C0.399414 12.8112 0.374244 14.3925 1.43287 15.7548L2.32118 15.0645C1.54958 14.0716 1.52441 12.9493 1.52441 10.1766H0.399414ZM1.43288 15.7548C2.49453 17.1209 3.71485 17.3496 5.68818 17.7522L5.91307 16.6499C3.87511 16.2341 3.08978 16.0535 2.32118 15.0645L1.43288 15.7548ZM5.6882 17.7522C7.33192 18.0875 9.10222 18.2698 10.9457 18.2698V17.1448C9.17568 17.1448 7.48078 16.9697 5.91305 16.6499L5.6882 17.7522ZM14.355 9.39274C14.3311 9.49071 14.2406 9.64967 13.8548 9.9236C13.4745 10.1937 12.9174 10.502 12.1166 10.9437L12.66 11.9287C13.4358 11.5008 14.0611 11.1569 14.5062 10.8408C14.9458 10.5287 15.3236 10.1676 15.4478 9.6602L14.355 9.39274ZM12.1167 10.9436C11.2472 11.4231 10.6365 11.7589 10.1568 11.9577C9.67669 12.1567 9.43085 12.1723 9.2642 12.1286L8.97877 13.2167C9.50659 13.3552 10.0367 13.2253 10.5876 12.997C11.139 12.7685 11.8144 12.395 12.6599 11.9288L12.1167 10.9436ZM9.26431 12.1286C9.10309 12.0863 8.95901 12.013 8.84151 11.9179L8.13389 12.7925C8.38021 12.9918 8.66943 13.1355 8.97865 13.2167L9.26431 12.1286ZM8.8415 11.9179C8.74036 11.8361 8.63566 11.6784 8.57532 11.2242C8.51427 10.7645 8.51308 10.1325 8.51308 9.21381H7.38808C7.38808 10.0996 7.38689 10.821 7.46012 11.3723C7.53406 11.929 7.69792 12.4398 8.13389 12.7925L8.8415 11.9179ZM8.51308 9.21381C8.51308 8.29509 8.51427 7.6631 8.57532 7.20346C8.63566 6.74923 8.74036 6.59155 8.84152 6.50969L8.13387 5.63513C7.69792 5.98788 7.53406 6.49864 7.46012 7.05533C7.38689 7.60662 7.38808 8.32803 7.38808 9.21381H8.51308ZM8.84154 6.50968C8.95899 6.41463 9.10302 6.34139 9.26421 6.29911L8.97875 5.21093C8.6695 5.29205 8.38023 5.43578 8.13386 5.63514L8.84154 6.50968ZM9.26422 6.2991C9.43087 6.25538 9.67672 6.2709 10.1568 6.46989C10.6365 6.66869 11.2472 7.00455 12.1166 7.48402L12.6599 6.49889C11.8144 6.03261 11.139 5.65915 10.5876 5.43062C10.0367 5.20228 9.50656 5.07246 8.97874 5.21093L9.26422 6.2991ZM12.1166 7.484C12.9174 7.92568 13.4746 8.23397 13.8548 8.50403C14.2406 8.77796 14.3311 8.93692 14.355 9.03488L15.4478 8.76743C15.3236 8.26006 14.9458 7.89897 14.5062 7.58678C14.0611 7.27072 13.4358 6.92683 12.6599 6.49891L12.1166 7.484ZM14.355 9.03485C14.384 9.15306 14.384 9.27457 14.355 9.39277L15.4478 9.66017C15.5197 9.36629 15.5197 9.06133 15.4478 8.76746L14.355 9.03485Z" fill="#EA454C"/>
</svg>
