<svg width="29" height="25" viewBox="0 0 29 25" fill="none" xmlns="http://www.w3.org/2000/svg">
<path d="M7.62609 8.10465L11.5424 10.4221C13.8256 11.7732 14.7383 11.7732 17.0215 10.4221L20.9378 8.10465M0.991207 14.7337C1.07823 18.818 1.12174 20.86 2.62747 22.3729C4.13319 23.8856 6.2288 23.9382 10.42 24.0436C13.0031 24.1086 15.5608 24.1086 18.144 24.0436C22.3352 23.9382 24.4307 23.8856 25.9365 22.3729C27.4422 20.86 27.4858 18.818 27.5727 14.7337C27.6008 13.4204 27.6008 12.115 27.5727 10.8018C27.4858 6.71754 27.4422 4.67542 25.9365 3.16267C24.4307 1.64993 22.3352 1.59724 18.144 1.49184C15.5608 1.42688 13.0031 1.42688 10.42 1.49183C6.22879 1.59721 4.13319 1.6499 2.62746 3.16266C1.12173 4.6754 1.07823 6.71752 0.991194 10.8018C0.963213 12.115 0.963226 13.4204 0.991207 14.7337Z" stroke="#EA454C" stroke-width="1.5" stroke-linecap="round" stroke-linejoin="round"/>
</svg>
