<svg width="26" height="26" viewBox="0 0 26 26" fill="none" xmlns="http://www.w3.org/2000/svg">
<path d="M13.2081 12.4389C12.8353 12.4389 12.5331 12.7411 12.5331 13.1139C12.5331 13.4867 12.8353 13.7889 13.2081 13.7889V12.4389ZM19.1984 13.1139H19.8734C19.8734 12.7411 19.5712 12.4389 19.1984 12.4389V13.1139ZM16.9663 9.35161C17.2298 9.61533 17.6572 9.61551 17.9209 9.35203C18.1847 9.08854 18.1848 8.66115 17.9214 8.39743L16.9663 9.35161ZM24.5137 13.1139C24.5137 19.364 19.4515 24.4297 13.2081 24.4297V25.7797C20.1981 25.7797 25.8637 20.1085 25.8637 13.1139H24.5137ZM13.2081 24.4297C6.96476 24.4297 1.90254 19.364 1.90254 13.1139H0.552539C0.552539 20.1085 6.21809 25.7797 13.2081 25.7797V24.4297ZM1.90254 13.1139C1.90254 6.86382 6.96476 1.79812 13.2081 1.79812V0.448123C6.21809 0.448123 0.552539 6.11932 0.552539 13.1139H1.90254ZM13.2081 1.79812C19.4515 1.79812 24.5137 6.86382 24.5137 13.1139H25.8637C25.8637 6.11932 20.1981 0.448123 13.2081 0.448123V1.79812ZM13.2081 13.7889H19.1984V12.4389H13.2081V13.7889ZM18.5234 13.1139C18.5234 16.0528 16.1431 18.4343 13.2081 18.4343V19.7843C16.8898 19.7843 19.8734 16.7973 19.8734 13.1139H18.5234ZM13.2081 18.4343C10.2731 18.4343 7.89283 16.0528 7.89283 13.1139H6.54283C6.54283 16.7973 9.52644 19.7843 13.2081 19.7843V18.4343ZM7.89283 13.1139C7.89283 10.175 10.2731 7.79351 13.2081 7.79351V6.44351C9.52644 6.44351 6.54283 9.43049 6.54283 13.1139H7.89283ZM13.2081 7.79351C14.6759 7.79351 16.0037 8.38812 16.9663 9.35161L17.9214 8.39743C16.716 7.191 15.0487 6.44351 13.2081 6.44351V7.79351Z" fill="#C23B40"/>
</svg>
