<svg width="26" height="29" viewBox="0 0 26 29" fill="none" xmlns="http://www.w3.org/2000/svg">
<path d="M15.1042 27.0028C14.527 27.5437 13.7553 27.8461 12.9523 27.8461C12.1492 27.8461 11.3776 27.5437 10.8003 27.0028C5.51354 22.0186 -1.57132 16.4508 1.88376 8.36734C3.75188 3.99671 8.23622 1.19998 12.9523 1.19998C17.6683 1.19998 22.1527 3.99671 24.0208 8.36734C27.4715 16.4406 20.404 22.0358 15.1042 27.0028Z" stroke="#EA454C" stroke-width="1.5"/>
<path d="M17.6099 13.1907C17.6099 15.7661 15.5239 17.8538 12.9508 17.8538C10.3776 17.8538 8.29168 15.7661 8.29168 13.1907C8.29168 10.6154 10.3776 8.52767 12.9508 8.52767C15.5239 8.52767 17.6099 10.6154 17.6099 13.1907Z" stroke="#EA454C" stroke-width="1.5"/>
</svg>
